<?xml version="1.0" encoding="UTF-8"?>
<svg xmlns="http://www.w3.org/2000/svg" xmlns:xlink="http://www.w3.org/1999/xlink" width="200px" height="309px" viewBox="0 0 200 309" version="1.1">
<g id="surface1">
<path style="fill:none;stroke-width:100;stroke-linecap:round;stroke-linejoin:round;stroke:rgb(51.764709%,0%,0%);stroke-opacity:1;stroke-miterlimit:4;" d="M 36600.03529 19000.002232 L 37400.063415 19000.002232 L 37400.063415 21000.060078 L 36600.03529 21000.060078 Z M 36600.03529 19000.002232 " transform="matrix(0.0219475,0,0,0.0218939,-785.051635,-338.320049)"/>
<path style="fill:none;stroke-width:60;stroke-linecap:round;stroke-linejoin:round;stroke:rgb(51.764709%,0%,0%);stroke-opacity:1;stroke-miterlimit:4;" d="M 36999.960362 19000.002232 L 36999.960362 18500.076979 " transform="matrix(0.0219475,0,0,0.0218939,-785.051635,-338.320049)"/>
<path style="fill:none;stroke-width:60;stroke-linecap:round;stroke-linejoin:round;stroke:rgb(51.764709%,0%,0%);stroke-opacity:1;stroke-miterlimit:4;" d="M 36999.960362 21000.060078 L 36999.960362 21499.985331 " transform="matrix(0.0219475,0,0,0.0218939,-785.051635,-338.320049)"/>
<path style="fill:none;stroke-width:60;stroke-linecap:round;stroke-linejoin:round;stroke:rgb(0%,51.764709%,51.764709%);stroke-opacity:1;stroke-miterlimit:4;" d="M 37850.001369 19780.042634 L 37850.001369 19279.938964 L 38040.085916 19279.938964 L 38079.953836 19309.913069 L 38110.032758 19330.074223 L 38129.966718 19380.031065 L 38129.966718 19449.970643 L 38110.032758 19499.927485 L 38079.953836 19520.088639 L 38040.085916 19540.071376 L 37850.001369 19540.071376 " transform="matrix(0.0219475,0,0,0.0218939,-785.051635,-338.320049)"/>
<path style="fill:none;stroke-width:60;stroke-linecap:round;stroke-linejoin:round;stroke:rgb(0%,51.764709%,51.764709%);stroke-opacity:1;stroke-miterlimit:4;" d="M 38559.970712 19449.970643 L 38559.970712 19780.042634 " transform="matrix(0.0219475,0,0,0.0218939,-785.051635,-338.320049)"/>
<path style="fill:none;stroke-width:60;stroke-linecap:round;stroke-linejoin:round;stroke:rgb(0%,51.764709%,51.764709%);stroke-opacity:1;stroke-miterlimit:4;" d="M 38349.952205 19449.970643 L 38349.952205 19709.924638 L 38370.064146 19760.059897 L 38420.077028 19780.042634 L 38490.02387 19780.042634 L 38540.036752 19760.059897 L 38559.970712 19730.085792 " transform="matrix(0.0219475,0,0,0.0218939,-785.051635,-338.320049)"/>
<path style="fill:none;stroke-width:60;stroke-linecap:round;stroke-linejoin:round;stroke:rgb(0%,51.764709%,51.764709%);stroke-opacity:1;stroke-miterlimit:4;" d="M 38870.014982 19780.042634 L 38820.0021 19760.059897 L 38800.06814 19709.924638 L 38800.06814 19279.938964 " transform="matrix(0.0219475,0,0,0.0218939,-785.051635,-338.320049)"/>
<path style="fill:none;stroke-width:60;stroke-linecap:round;stroke-linejoin:round;stroke:rgb(0%,51.764709%,51.764709%);stroke-opacity:1;stroke-miterlimit:4;" d="M 39130.04637 19780.042634 L 39080.033489 19760.059897 L 39059.921547 19709.924638 L 39059.921547 19279.938964 " transform="matrix(0.0219475,0,0,0.0218939,-785.051635,-338.320049)"/>
<path style="fill:none;stroke-width:60;stroke-linecap:round;stroke-linejoin:round;stroke:rgb(0%,51.764709%,51.764709%);stroke-opacity:1;stroke-miterlimit:4;" d="M 39319.952936 19590.028218 L 39699.944048 19590.028218 " transform="matrix(0.0219475,0,0,0.0218939,-785.051635,-338.320049)"/>
<path style="fill:none;stroke-width:60;stroke-linecap:round;stroke-linejoin:round;stroke:rgb(0%,51.764709%,51.764709%);stroke-opacity:1;stroke-miterlimit:4;" d="M 39940.041476 19279.938964 L 39940.041476 19689.941901 L 39969.942416 19730.085792 L 39990.054358 19760.059897 L 40040.06724 19780.042634 L 40129.948041 19780.042634 L 40179.960923 19760.059897 L 40200.072865 19730.085792 L 40229.973805 19689.941901 L 40229.973805 19279.938964 " transform="matrix(0.0219475,0,0,0.0218939,-785.051635,-338.320049)"/>
<path style="fill:none;stroke-width:60;stroke-linecap:round;stroke-linejoin:round;stroke:rgb(0%,51.764709%,51.764709%);stroke-opacity:1;stroke-miterlimit:4;" d="M 40470.071233 19449.970643 L 40470.071233 19950.074313 " transform="matrix(0.0219475,0,0,0.0218939,-785.051635,-338.320049)"/>
<path style="fill:none;stroke-width:60;stroke-linecap:round;stroke-linejoin:round;stroke:rgb(0%,51.764709%,51.764709%);stroke-opacity:1;stroke-miterlimit:4;" d="M 40470.071233 19469.95338 L 40509.939153 19449.970643 L 40609.964917 19449.970643 L 40659.977799 19469.95338 L 40679.911759 19499.927485 L 40700.0237 19540.071376 L 40700.0237 19689.941901 L 40679.911759 19730.085792 L 40659.977799 19760.059897 L 40609.964917 19780.042634 L 40509.939153 19780.042634 L 40470.071233 19760.059897 " transform="matrix(0.0219475,0,0,0.0218939,-785.051635,-338.320049)"/>
<path style="fill:none;stroke-width:60;stroke-linecap:round;stroke-linejoin:round;stroke:rgb(0%,51.764709%,51.764709%);stroke-opacity:1;stroke-miterlimit:4;" d="M 41199.974536 19780.042634 L 41039.968911 19540.071376 " transform="matrix(0.0219475,0,0,0.0218939,-785.051635,-338.320049)"/>
<path style="fill:none;stroke-width:60;stroke-linecap:round;stroke-linejoin:round;stroke:rgb(0%,51.764709%,51.764709%);stroke-opacity:1;stroke-miterlimit:4;" d="M 40920.009187 19780.042634 L 40920.009187 19279.938964 L 41109.915752 19279.938964 L 41159.928634 19309.913069 L 41180.040576 19330.074223 L 41199.974536 19380.031065 L 41199.974536 19449.970643 L 41180.040576 19499.927485 L 41159.928634 19520.088639 L 41109.915752 19540.071376 L 40920.009187 19540.071376 " transform="matrix(0.0219475,0,0,0.0218939,-785.051635,-338.320049)"/>
<path style="fill:none;stroke-width:60;stroke-linecap:round;stroke-linejoin:round;stroke:rgb(0%,51.764709%,51.764709%);stroke-opacity:1;stroke-miterlimit:4;" d="M 41610.04457 19760.059897 L 41560.031688 19780.042634 L 41469.972904 19780.042634 L 41419.960023 19760.059897 L 41390.059083 19709.924638 L 41390.059083 19520.088639 L 41419.960023 19469.95338 L 41469.972904 19449.970643 L 41560.031688 19449.970643 L 41610.04457 19469.95338 L 41629.97853 19520.088639 L 41629.97853 19570.045481 L 41390.059083 19610.010954 " transform="matrix(0.0219475,0,0,0.0218939,-785.051635,-338.320049)"/>
<path style="fill:none;stroke-width:60;stroke-linecap:round;stroke-linejoin:round;stroke:rgb(0%,51.764709%,51.764709%);stroke-opacity:1;stroke-miterlimit:4;" d="M 41820.063076 19760.059897 L 41870.075958 19780.042634 L 41969.92374 19780.042634 L 42009.969642 19760.059897 L 42040.048563 19709.924638 L 42040.048563 19689.941901 L 42009.969642 19639.985059 L 41969.92374 19610.010954 L 41890.009918 19610.010954 L 41849.964016 19590.028218 L 41820.063076 19540.071376 L 41820.063076 19520.088639 L 41849.964016 19469.95338 L 41890.009918 19449.970643 L 41969.92374 19449.970643 L 42009.969642 19469.95338 " transform="matrix(0.0219475,0,0,0.0218939,-785.051635,-338.320049)"/>
<path style="fill:none;stroke-width:60;stroke-linecap:round;stroke-linejoin:round;stroke:rgb(0%,51.764709%,51.764709%);stroke-opacity:1;stroke-miterlimit:4;" d="M 42250.06707 19780.042634 L 42250.06707 19449.970643 " transform="matrix(0.0219475,0,0,0.0218939,-785.051635,-338.320049)"/>
<path style="fill:none;stroke-width:60;stroke-linecap:round;stroke-linejoin:round;stroke:rgb(0%,51.764709%,51.764709%);stroke-opacity:1;stroke-miterlimit:4;" d="M 42250.06707 19279.938964 L 42229.955128 19309.913069 L 42250.06707 19330.074223 L 42279.96801 19309.913069 L 42250.06707 19279.938964 L 42250.06707 19330.074223 " transform="matrix(0.0219475,0,0,0.0218939,-785.051635,-338.320049)"/>
<path style="fill:none;stroke-width:60;stroke-linecap:round;stroke-linejoin:round;stroke:rgb(0%,51.764709%,51.764709%);stroke-opacity:1;stroke-miterlimit:4;" d="M 42470.052557 19760.059897 L 42509.920477 19780.042634 L 42609.94624 19780.042634 L 42659.959122 19760.059897 L 42680.071064 19709.924638 L 42680.071064 19689.941901 L 42659.959122 19639.985059 L 42609.94624 19610.010954 L 42539.999399 19610.010954 L 42489.986517 19590.028218 L 42470.052557 19540.071376 L 42470.052557 19520.088639 L 42489.986517 19469.95338 L 42539.999399 19449.970643 L 42609.94624 19449.970643 L 42659.959122 19469.95338 " transform="matrix(0.0219475,0,0,0.0218939,-785.051635,-338.320049)"/>
<path style="fill:none;stroke-width:60;stroke-linecap:round;stroke-linejoin:round;stroke:rgb(0%,51.764709%,51.764709%);stroke-opacity:1;stroke-miterlimit:4;" d="M 42819.964747 19449.970643 L 43010.049294 19449.970643 " transform="matrix(0.0219475,0,0,0.0218939,-785.051635,-338.320049)"/>
<path style="fill:none;stroke-width:60;stroke-linecap:round;stroke-linejoin:round;stroke:rgb(0%,51.764709%,51.764709%);stroke-opacity:1;stroke-miterlimit:4;" d="M 42889.911589 19279.938964 L 42889.911589 19709.924638 L 42919.990511 19760.059897 L 42970.003393 19780.042634 L 43010.049294 19780.042634 " transform="matrix(0.0219475,0,0,0.0218939,-785.051635,-338.320049)"/>
<path style="fill:none;stroke-width:60;stroke-linecap:round;stroke-linejoin:round;stroke:rgb(0%,51.764709%,51.764709%);stroke-opacity:1;stroke-miterlimit:4;" d="M 43390.040406 19780.042634 L 43390.040406 19520.088639 L 43369.928465 19469.95338 L 43319.915583 19449.970643 L 43230.034781 19449.970643 L 43180.021899 19469.95338 " transform="matrix(0.0219475,0,0,0.0218939,-785.051635,-338.320049)"/>
<path style="fill:none;stroke-width:60;stroke-linecap:round;stroke-linejoin:round;stroke:rgb(0%,51.764709%,51.764709%);stroke-opacity:1;stroke-miterlimit:4;" d="M 43390.040406 19760.059897 L 43349.994505 19780.042634 L 43230.034781 19780.042634 L 43180.021899 19760.059897 L 43160.087939 19709.924638 L 43160.087939 19659.967796 L 43180.021899 19610.010954 L 43230.034781 19590.028218 L 43349.994505 19590.028218 L 43390.040406 19570.045481 " transform="matrix(0.0219475,0,0,0.0218939,-785.051635,-338.320049)"/>
<path style="fill:none;stroke-width:60;stroke-linecap:round;stroke-linejoin:round;stroke:rgb(0%,51.764709%,51.764709%);stroke-opacity:1;stroke-miterlimit:4;" d="M 43629.959853 19449.970643 L 43629.959853 19780.042634 " transform="matrix(0.0219475,0,0,0.0218939,-785.051635,-338.320049)"/>
<path style="fill:none;stroke-width:60;stroke-linecap:round;stroke-linejoin:round;stroke:rgb(0%,51.764709%,51.764709%);stroke-opacity:1;stroke-miterlimit:4;" d="M 43629.959853 19499.927485 L 43660.038775 19469.95338 L 43700.084677 19449.970643 L 43779.998498 19449.970643 L 43820.0444 19469.95338 L 43849.94534 19520.088639 L 43849.94534 19780.042634 " transform="matrix(0.0219475,0,0,0.0218939,-785.051635,-338.320049)"/>
<path style="fill:none;stroke-width:60;stroke-linecap:round;stroke-linejoin:round;stroke:rgb(0%,51.764709%,51.764709%);stroke-opacity:1;stroke-miterlimit:4;" d="M 44300.061275 19760.059897 L 44250.048394 19780.042634 L 44159.98961 19780.042634 L 44109.976729 19760.059897 L 44080.075789 19730.085792 L 44059.963847 19689.941901 L 44059.963847 19540.071376 L 44080.075789 19499.927485 L 44109.976729 19469.95338 L 44159.98961 19449.970643 L 44250.048394 19449.970643 L 44300.061275 19469.95338 " transform="matrix(0.0219475,0,0,0.0218939,-785.051635,-338.320049)"/>
<path style="fill:none;stroke-width:60;stroke-linecap:round;stroke-linejoin:round;stroke:rgb(0%,51.764709%,51.764709%);stroke-opacity:1;stroke-miterlimit:4;" d="M 44699.986348 19760.059897 L 44659.940446 19780.042634 L 44559.914682 19780.042634 L 44510.079782 19760.059897 L 44489.967841 19709.924638 L 44489.967841 19520.088639 L 44510.079782 19469.95338 L 44559.914682 19449.970643 L 44659.940446 19449.970643 L 44699.986348 19469.95338 L 44730.065269 19520.088639 L 44730.065269 19570.045481 L 44489.967841 19610.010954 " transform="matrix(0.0219475,0,0,0.0218939,-785.051635,-338.320049)"/>
<path style="fill:none;stroke-width:60;stroke-linecap:round;stroke-linejoin:round;stroke:rgb(0%,51.764709%,51.764709%);stroke-opacity:1;stroke-miterlimit:4;" d="M 38129.966718 20689.970824 L 37959.994113 20449.999566 " transform="matrix(0.0219475,0,0,0.0218939,-785.051635,-338.320049)"/>
<path style="fill:none;stroke-width:60;stroke-linecap:round;stroke-linejoin:round;stroke:rgb(0%,51.764709%,51.764709%);stroke-opacity:1;stroke-miterlimit:4;" d="M 37840.034389 20689.970824 L 37840.034389 20190.045571 L 38029.940954 20190.045571 L 38079.953836 20220.019677 L 38100.065778 20240.002413 L 38129.966718 20289.959255 L 38129.966718 20360.077251 L 38100.065778 20410.034093 L 38079.953836 20430.01683 L 38029.940954 20449.999566 L 37840.034389 20449.999566 " transform="matrix(0.0219475,0,0,0.0218939,-785.051635,-338.320049)"/>
<path style="fill:none;stroke-width:60;stroke-linecap:round;stroke-linejoin:round;stroke:rgb(0%,51.764709%,51.764709%);stroke-opacity:1;stroke-miterlimit:4;" d="M 38530.069772 20669.988088 L 38480.05689 20689.970824 L 38389.998106 20689.970824 L 38339.985225 20669.988088 L 38320.051265 20620.031246 L 38320.051265 20430.01683 L 38339.985225 20380.059988 L 38389.998106 20360.077251 L 38480.05689 20360.077251 L 38530.069772 20380.059988 L 38559.970712 20430.01683 L 38559.970712 20479.973671 L 38320.051265 20519.939145 " transform="matrix(0.0219475,0,0,0.0218939,-785.051635,-338.320049)"/>
<path style="fill:none;stroke-width:60;stroke-linecap:round;stroke-linejoin:round;stroke:rgb(0%,51.764709%,51.764709%);stroke-opacity:1;stroke-miterlimit:4;" d="M 38750.055258 20669.988088 L 38789.923178 20689.970824 L 38889.948942 20689.970824 L 38939.961824 20669.988088 L 38960.073765 20620.031246 L 38960.073765 20600.048509 L 38939.961824 20549.91325 L 38889.948942 20519.939145 L 38820.0021 20519.939145 L 38769.989218 20499.956408 L 38750.055258 20449.999566 L 38750.055258 20430.01683 L 38769.989218 20380.059988 L 38820.0021 20360.077251 L 38889.948942 20360.077251 L 38939.961824 20380.059988 " transform="matrix(0.0219475,0,0,0.0218939,-785.051635,-338.320049)"/>
<path style="fill:none;stroke-width:60;stroke-linecap:round;stroke-linejoin:round;stroke:rgb(0%,51.764709%,51.764709%);stroke-opacity:1;stroke-miterlimit:4;" d="M 39169.91429 20689.970824 L 39169.91429 20360.077251 " transform="matrix(0.0219475,0,0,0.0218939,-785.051635,-338.320049)"/>
<path style="fill:none;stroke-width:60;stroke-linecap:round;stroke-linejoin:round;stroke:rgb(0%,51.764709%,51.764709%);stroke-opacity:1;stroke-miterlimit:4;" d="M 39169.91429 20190.045571 L 39149.98033 20220.019677 L 39169.91429 20240.002413 L 39199.993212 20220.019677 L 39169.91429 20190.045571 L 39169.91429 20240.002413 " transform="matrix(0.0219475,0,0,0.0218939,-785.051635,-338.320049)"/>
<path style="fill:none;stroke-width:60;stroke-linecap:round;stroke-linejoin:round;stroke:rgb(0%,51.764709%,51.764709%);stroke-opacity:1;stroke-miterlimit:4;" d="M 39390.077759 20669.988088 L 39439.912659 20689.970824 L 39529.971442 20689.970824 L 39579.984324 20669.988088 L 39599.918284 20620.031246 L 39599.918284 20600.048509 L 39579.984324 20549.91325 L 39529.971442 20519.939145 L 39460.024601 20519.939145 L 39410.011719 20499.956408 L 39390.077759 20449.999566 L 39390.077759 20430.01683 L 39410.011719 20380.059988 L 39460.024601 20360.077251 L 39529.971442 20360.077251 L 39579.984324 20380.059988 " transform="matrix(0.0219475,0,0,0.0218939,-785.051635,-338.320049)"/>
<path style="fill:none;stroke-width:60;stroke-linecap:round;stroke-linejoin:round;stroke:rgb(0%,51.764709%,51.764709%);stroke-opacity:1;stroke-miterlimit:4;" d="M 39749.956929 20360.077251 L 39940.041476 20360.077251 " transform="matrix(0.0219475,0,0,0.0218939,-785.051635,-338.320049)"/>
<path style="fill:none;stroke-width:60;stroke-linecap:round;stroke-linejoin:round;stroke:rgb(0%,51.764709%,51.764709%);stroke-opacity:1;stroke-miterlimit:4;" d="M 39820.081753 20190.045571 L 39820.081753 20620.031246 L 39840.015713 20669.988088 L 39890.028595 20689.970824 L 39940.041476 20689.970824 " transform="matrix(0.0219475,0,0,0.0218939,-785.051635,-338.320049)"/>
<path style="fill:none;stroke-width:60;stroke-linecap:round;stroke-linejoin:round;stroke:rgb(0%,51.764709%,51.764709%);stroke-opacity:1;stroke-miterlimit:4;" d="M 40320.032588 20689.970824 L 40320.032588 20430.01683 L 40289.953667 20380.059988 L 40250.085747 20360.077251 L 40150.059983 20360.077251 L 40100.047101 20380.059988 " transform="matrix(0.0219475,0,0,0.0218939,-785.051635,-338.320049)"/>
<path style="fill:none;stroke-width:60;stroke-linecap:round;stroke-linejoin:round;stroke:rgb(0%,51.764709%,51.764709%);stroke-opacity:1;stroke-miterlimit:4;" d="M 40320.032588 20669.988088 L 40270.019707 20689.970824 L 40150.059983 20689.970824 L 40100.047101 20669.988088 L 40079.93516 20620.031246 L 40079.93516 20570.074404 L 40100.047101 20519.939145 L 40150.059983 20499.956408 L 40270.019707 20499.956408 L 40320.032588 20479.973671 " transform="matrix(0.0219475,0,0,0.0218939,-785.051635,-338.320049)"/>
<path style="fill:none;stroke-width:60;stroke-linecap:round;stroke-linejoin:round;stroke:rgb(0%,51.764709%,51.764709%);stroke-opacity:1;stroke-miterlimit:4;" d="M 40559.952035 20360.077251 L 40559.952035 20689.970824 " transform="matrix(0.0219475,0,0,0.0218939,-785.051635,-338.320049)"/>
<path style="fill:none;stroke-width:60;stroke-linecap:round;stroke-linejoin:round;stroke:rgb(0%,51.764709%,51.764709%);stroke-opacity:1;stroke-miterlimit:4;" d="M 40559.952035 20410.034093 L 40580.063977 20380.059988 L 40630.076859 20360.077251 L 40700.0237 20360.077251 L 40750.036582 20380.059988 L 40769.970542 20430.01683 L 40769.970542 20689.970824 " transform="matrix(0.0219475,0,0,0.0218939,-785.051635,-338.320049)"/>
<path style="fill:none;stroke-width:60;stroke-linecap:round;stroke-linejoin:round;stroke:rgb(0%,51.764709%,51.764709%);stroke-opacity:1;stroke-miterlimit:4;" d="M 41220.086478 20669.988088 L 41170.073596 20689.970824 L 41080.014812 20689.970824 L 41030.001931 20669.988088 L 41010.067971 20640.013983 L 40979.989049 20600.048509 L 40979.989049 20449.999566 L 41010.067971 20410.034093 L 41030.001931 20380.059988 L 41080.014812 20360.077251 L 41170.073596 20360.077251 L 41220.086478 20380.059988 " transform="matrix(0.0219475,0,0,0.0218939,-785.051635,-338.320049)"/>
<path style="fill:none;stroke-width:60;stroke-linecap:round;stroke-linejoin:round;stroke:rgb(0%,51.764709%,51.764709%);stroke-opacity:1;stroke-miterlimit:4;" d="M 41629.97853 20669.988088 L 41579.965648 20689.970824 L 41479.939884 20689.970824 L 41440.071964 20669.988088 L 41409.993043 20620.031246 L 41409.993043 20430.01683 L 41440.071964 20380.059988 L 41479.939884 20360.077251 L 41579.965648 20360.077251 L 41629.97853 20380.059988 L 41649.912489 20430.01683 L 41649.912489 20479.973671 L 41409.993043 20519.939145 " transform="matrix(0.0219475,0,0,0.0218939,-785.051635,-338.320049)"/>
<path style="fill:none;stroke-width:60;stroke-linecap:round;stroke-linejoin:round;stroke:rgb(0%,51.764709%,51.764709%);stroke-opacity:1;stroke-miterlimit:4;" d="M 42169.975267 20190.045571 L 42460.085577 20190.045571 " transform="matrix(0.0219475,0,0,0.0218939,-785.051635,-338.320049)"/>
<path style="fill:none;stroke-width:60;stroke-linecap:round;stroke-linejoin:round;stroke:rgb(0%,51.764709%,51.764709%);stroke-opacity:1;stroke-miterlimit:4;" d="M 42320.013912 20689.970824 L 42320.013912 20190.045571 " transform="matrix(0.0219475,0,0,0.0218939,-785.051635,-338.320049)"/>
<path style="fill:none;stroke-width:60;stroke-linecap:round;stroke-linejoin:round;stroke:rgb(0%,51.764709%,51.764709%);stroke-opacity:1;stroke-miterlimit:4;" d="M 42630.058182 20689.970824 L 42630.058182 20360.077251 " transform="matrix(0.0219475,0,0,0.0218939,-785.051635,-338.320049)"/>
<path style="fill:none;stroke-width:60;stroke-linecap:round;stroke-linejoin:round;stroke:rgb(0%,51.764709%,51.764709%);stroke-opacity:1;stroke-miterlimit:4;" d="M 42630.058182 20190.045571 L 42599.97926 20220.019677 L 42630.058182 20240.002413 L 42649.992142 20220.019677 L 42630.058182 20190.045571 L 42630.058182 20240.002413 " transform="matrix(0.0219475,0,0,0.0218939,-785.051635,-338.320049)"/>
<path style="fill:none;stroke-width:60;stroke-linecap:round;stroke-linejoin:round;stroke:rgb(0%,51.764709%,51.764709%);stroke-opacity:1;stroke-miterlimit:4;" d="M 42860.010649 20689.970824 L 42860.010649 20360.077251 " transform="matrix(0.0219475,0,0,0.0218939,-785.051635,-338.320049)"/>
<path style="fill:none;stroke-width:60;stroke-linecap:round;stroke-linejoin:round;stroke:rgb(0%,51.764709%,51.764709%);stroke-opacity:1;stroke-miterlimit:4;" d="M 42860.010649 20449.999566 L 42889.911589 20410.034093 L 42910.023531 20380.059988 L 42960.036413 20360.077251 L 43010.049294 20360.077251 " transform="matrix(0.0219475,0,0,0.0218939,-785.051635,-338.320049)"/>
<path style="fill:none;stroke-width:60;stroke-linecap:round;stroke-linejoin:round;stroke:rgb(0%,51.764709%,51.764709%);stroke-opacity:1;stroke-miterlimit:4;" d="M 43390.040406 20689.970824 L 43390.040406 20430.01683 L 43359.961485 20380.059988 L 43319.915583 20360.077251 L 43220.067801 20360.077251 L 43170.054919 20380.059988 " transform="matrix(0.0219475,0,0,0.0218939,-785.051635,-338.320049)"/>
<path style="fill:none;stroke-width:60;stroke-linecap:round;stroke-linejoin:round;stroke:rgb(0%,51.764709%,51.764709%);stroke-opacity:1;stroke-miterlimit:4;" d="M 43390.040406 20669.988088 L 43340.027525 20689.970824 L 43220.067801 20689.970824 L 43170.054919 20669.988088 L 43149.942978 20620.031246 L 43149.942978 20570.074404 L 43170.054919 20519.939145 L 43220.067801 20499.956408 L 43340.027525 20499.956408 L 43390.040406 20479.973671 " transform="matrix(0.0219475,0,0,0.0218939,-785.051635,-338.320049)"/>
<path style="fill:none;stroke-width:60;stroke-linecap:round;stroke-linejoin:round;stroke:rgb(0%,51.764709%,51.764709%);stroke-opacity:1;stroke-miterlimit:4;" d="M 43839.97836 20360.077251 L 43839.97836 20760.08882 L 43820.0444 20810.045662 L 43789.965478 20830.028399 L 43749.919577 20860.002504 L 43670.005755 20860.002504 L 43629.959853 20830.028399 " transform="matrix(0.0219475,0,0,0.0218939,-785.051635,-338.320049)"/>
<path style="fill:none;stroke-width:60;stroke-linecap:round;stroke-linejoin:round;stroke:rgb(0%,51.764709%,51.764709%);stroke-opacity:1;stroke-miterlimit:4;" d="M 43839.97836 20669.988088 L 43789.965478 20689.970824 L 43700.084677 20689.970824 L 43650.071795 20669.988088 L 43629.959853 20640.013983 L 43600.058913 20600.048509 L 43600.058913 20449.999566 L 43629.959853 20410.034093 L 43650.071795 20380.059988 L 43700.084677 20360.077251 L 43789.965478 20360.077251 L 43839.97836 20380.059988 " transform="matrix(0.0219475,0,0,0.0218939,-785.051635,-338.320049)"/>
<path style="fill:none;stroke-width:60;stroke-linecap:round;stroke-linejoin:round;stroke:rgb(0%,51.764709%,51.764709%);stroke-opacity:1;stroke-miterlimit:4;" d="M 44269.982354 20669.988088 L 44219.969472 20689.970824 L 44130.08867 20689.970824 L 44080.075789 20669.988088 L 44059.963847 20620.031246 L 44059.963847 20430.01683 L 44080.075789 20380.059988 L 44130.08867 20360.077251 L 44219.969472 20360.077251 L 44269.982354 20380.059988 L 44289.916314 20430.01683 L 44289.916314 20479.973671 L 44059.963847 20519.939145 " transform="matrix(0.0219475,0,0,0.0218939,-785.051635,-338.320049)"/>
<path style="fill:none;stroke-width:60;stroke-linecap:round;stroke-linejoin:round;stroke:rgb(51.764709%,0%,0%);stroke-opacity:1;stroke-miterlimit:4;" d="M 37200.011889 25299.916822 C 37200.011889 25410.535543 37110.48705 25499.922607 36999.960362 25499.922607 C 36889.611655 25499.922607 36800.086817 25410.535543 36800.086817 25299.916822 C 36800.086817 25189.476518 36889.611655 25099.911037 36999.960362 25099.911037 C 37110.48705 25099.911037 37200.011889 25189.476518 37200.011889 25299.916822 Z M 37200.011889 25299.916822 " transform="matrix(0.0219475,0,0,0.0218939,-785.051635,-338.320049)"/>
<path style="fill:none;stroke-width:60;stroke-linecap:round;stroke-linejoin:round;stroke:rgb(51.764709%,0%,0%);stroke-opacity:1;stroke-miterlimit:4;" d="M 37200.011889 23700.048962 C 37200.011889 23810.489266 37110.48705 23900.054747 36999.960362 23900.054747 C 36889.611655 23900.054747 36800.086817 23810.489266 36800.086817 23700.048962 C 36800.086817 23589.608658 36889.611655 23500.043178 36999.960362 23500.043178 C 37110.48705 23500.043178 37200.011889 23589.608658 37200.011889 23700.048962 Z M 37200.011889 23700.048962 " transform="matrix(0.0219475,0,0,0.0218939,-785.051635,-338.320049)"/>
<path style="fill:none;stroke-width:60;stroke-linecap:round;stroke-linejoin:round;stroke:rgb(51.764709%,0%,0%);stroke-opacity:1;stroke-miterlimit:4;" d="M 36500.009526 24500.072101 L 35800.007164 24500.072101 " transform="matrix(0.0219475,0,0,0.0218939,-785.051635,-338.320049)"/>
<path style="fill:none;stroke-width:60;stroke-linecap:round;stroke-linejoin:round;stroke:rgb(51.764709%,0%,0%);stroke-opacity:1;stroke-miterlimit:4;" d="M 36500.009526 23500.043178 L 36500.009526 25499.922607 " transform="matrix(0.0219475,0,0,0.0218939,-785.051635,-338.320049)"/>
<path style="fill:none;stroke-width:60;stroke-linecap:round;stroke-linejoin:round;stroke:rgb(51.764709%,0%,0%);stroke-opacity:1;stroke-miterlimit:4;" d="M 36999.960362 25499.922607 L 36999.960362 26499.95153 " transform="matrix(0.0219475,0,0,0.0218939,-785.051635,-338.320049)"/>
<path style="fill:none;stroke-width:60;stroke-linecap:round;stroke-linejoin:round;stroke:rgb(51.764709%,0%,0%);stroke-opacity:1;stroke-miterlimit:4;" d="M 36999.960362 23500.043178 L 36999.960362 22500.014254 " transform="matrix(0.0219475,0,0,0.0218939,-785.051635,-338.320049)"/>
<path style="fill:none;stroke-width:60;stroke-linecap:round;stroke-linejoin:round;stroke:rgb(0%,51.764709%,51.764709%);stroke-opacity:1;stroke-miterlimit:4;" d="M 37790.021507 24429.954105 L 37859.968349 24449.936842 L 37890.047271 24479.910947 L 37909.981231 24520.054838 L 37909.981231 24599.985785 L 37890.047271 24639.951258 L 37859.968349 24669.925363 L 37809.955467 24690.086517 L 37620.048902 24690.086517 L 37620.048902 24189.982847 L 37790.021507 24189.982847 L 37840.034389 24219.956952 L 37859.968349 24239.939689 L 37890.047271 24290.074948 L 37890.047271 24330.040421 L 37859.968349 24379.997263 L 37840.034389 24409.971368 L 37790.021507 24429.954105 L 37620.048902 24429.954105 " transform="matrix(0.0219475,0,0,0.0218939,-785.051635,-338.320049)"/>
<path style="fill:none;stroke-width:60;stroke-linecap:round;stroke-linejoin:round;stroke:rgb(0%,51.764709%,51.764709%);stroke-opacity:1;stroke-miterlimit:4;" d="M 38119.999738 24690.086517 L 38119.999738 24189.982847 L 38310.084285 24189.982847 L 38359.919185 24219.956952 L 38389.998106 24239.939689 L 38409.932066 24290.074948 L 38409.932066 24360.014526 L 38389.998106 24409.971368 L 38359.919185 24429.954105 L 38310.084285 24449.936842 L 38119.999738 24449.936842 " transform="matrix(0.0219475,0,0,0.0218939,-785.051635,-338.320049)"/>
<path style="fill:none;stroke-width:60;stroke-linecap:round;stroke-linejoin:round;stroke:rgb(51.764709%,0%,0%);stroke-opacity:1;stroke-miterlimit:4;" d="M 36999.960362 27499.980453 L 36999.960362 28000.084123 L 37499.911197 28000.084123 L 36999.960362 28500.009376 L 36500.009526 28000.084123 L 36999.960362 28000.084123 " transform="matrix(0.0219475,0,0,0.0218939,-785.051635,-338.320049)"/>
<path style="fill:none;stroke-width:60;stroke-linecap:round;stroke-linejoin:round;stroke:rgb(0%,51.764709%,51.764709%);stroke-opacity:1;stroke-miterlimit:4;" d="M 36660.015151 28999.934629 L 36619.96925 28969.960524 L 36550.022408 28969.960524 L 36469.930604 28999.934629 L 36430.062685 29040.07852 L 36399.983763 29090.035362 L 36380.049803 29189.949045 L 36380.049803 29260.067041 L 36399.983763 29349.989357 L 36430.062685 29399.946198 L 36469.930604 29450.081458 L 36550.022408 29470.064194 L 36590.06831 29470.064194 L 36660.015151 29450.081458 L 36689.916091 29419.928935 L 36689.916091 29260.067041 L 36590.06831 29260.067041 " transform="matrix(0.0219475,0,0,0.0218939,-785.051635,-338.320049)"/>
<path style="fill:none;stroke-width:60;stroke-linecap:round;stroke-linejoin:round;stroke:rgb(0%,51.764709%,51.764709%);stroke-opacity:1;stroke-miterlimit:4;" d="M 36899.934598 29470.064194 L 36899.934598 28969.960524 L 37190.044909 29470.064194 L 37190.044909 28969.960524 " transform="matrix(0.0219475,0,0,0.0218939,-785.051635,-338.320049)"/>
<path style="fill:none;stroke-width:60;stroke-linecap:round;stroke-linejoin:round;stroke:rgb(0%,51.764709%,51.764709%);stroke-opacity:1;stroke-miterlimit:4;" d="M 37429.964355 29470.064194 L 37429.964355 28969.960524 L 37549.924079 28969.960524 L 37620.048902 28999.934629 L 37659.916822 29040.07852 L 37689.995744 29090.035362 L 37709.929704 29189.949045 L 37709.929704 29260.067041 L 37689.995744 29349.989357 L 37659.916822 29399.946198 L 37620.048902 29450.081458 L 37549.924079 29470.064194 L 37429.964355 29470.064194 " transform="matrix(0.0219475,0,0,0.0218939,-785.051635,-338.320049)"/>
<path style="fill:none;stroke-width:60;stroke-linecap:round;stroke-linejoin:round;stroke:rgb(51.764709%,0%,0%);stroke-opacity:1;stroke-miterlimit:4;" d="M 37250.02477 16749.981759 C 37250.02477 16888.076743 37138.074227 16999.944386 36999.960362 16999.944386 C 36861.846496 16999.944386 36750.073935 16888.076743 36750.073935 16749.981759 C 36750.073935 16611.886775 36861.846496 16500.019133 36999.960362 16500.019133 C 37138.074227 16500.019133 37250.02477 16611.886775 37250.02477 16749.981759 Z M 37250.02477 16749.981759 " transform="matrix(0.0219475,0,0,0.0218939,-785.051635,-338.320049)"/>
<path style="fill:none;stroke-width:60;stroke-linecap:round;stroke-linejoin:round;stroke:rgb(51.764709%,0%,0%);stroke-opacity:1;stroke-miterlimit:4;" d="M 36999.960362 17500.048056 L 36999.960362 16999.944386 " transform="matrix(0.0219475,0,0,0.0218939,-785.051635,-338.320049)"/>
<path style="fill:none;stroke-width:60;stroke-linecap:round;stroke-linejoin:round;stroke:rgb(0%,51.764709%,51.764709%);stroke-opacity:1;stroke-miterlimit:4;" d="M 36500.009526 15509.981578 L 36669.982131 16010.085248 L 36829.987757 15509.981578 " transform="matrix(0.0219475,0,0,0.0218939,-785.051635,-338.320049)"/>
<path style="fill:none;stroke-width:60;stroke-linecap:round;stroke-linejoin:round;stroke:rgb(0%,51.764709%,51.764709%);stroke-opacity:1;stroke-miterlimit:4;" d="M 37279.92571 15959.949989 L 37259.99175 15989.924094 L 37190.044909 16010.085248 L 37140.032027 16010.085248 L 37070.085185 15989.924094 L 37020.072303 15939.967252 L 36999.960362 15890.01041 L 36970.059422 15800.088095 L 36970.059422 15729.970099 L 36999.960362 15630.056416 L 37020.072303 15579.921156 L 37070.085185 15539.955683 L 37140.032027 15509.981578 L 37190.044909 15509.981578 L 37259.99175 15539.955683 L 37279.92571 15559.93842 " transform="matrix(0.0219475,0,0,0.0218939,-785.051635,-338.320049)"/>
<path style="fill:none;stroke-width:60;stroke-linecap:round;stroke-linejoin:round;stroke:rgb(0%,51.764709%,51.764709%);stroke-opacity:1;stroke-miterlimit:4;" d="M 37780.054527 15959.949989 L 37759.942586 15989.924094 L 37689.995744 16010.085248 L 37639.982862 16010.085248 L 37570.036021 15989.924094 L 37520.023139 15939.967252 L 37499.911197 15890.01041 L 37470.010257 15800.088095 L 37470.010257 15729.970099 L 37499.911197 15630.056416 L 37520.023139 15579.921156 L 37570.036021 15539.955683 L 37639.982862 15509.981578 L 37689.995744 15509.981578 L 37759.942586 15539.955683 L 37780.054527 15559.93842 " transform="matrix(0.0219475,0,0,0.0218939,-785.051635,-338.320049)"/>
<path style="fill:none;stroke-width:60;stroke-linecap:round;stroke-linejoin:round;stroke:rgb(0%,51.764709%,0%);stroke-opacity:1;stroke-miterlimit:4;" d="M 36999.960362 18500.076979 L 36999.960362 17500.048056 " transform="matrix(0.0219475,0,0,0.0218939,-785.051635,-338.320049)"/>
<path style="fill:none;stroke-width:60;stroke-linecap:round;stroke-linejoin:round;stroke:rgb(0%,51.764709%,0%);stroke-opacity:1;stroke-miterlimit:4;" d="M 36999.960362 27499.980453 L 36999.960362 26499.95153 " transform="matrix(0.0219475,0,0,0.0218939,-785.051635,-338.320049)"/>
<path style="fill:none;stroke-width:60;stroke-linecap:round;stroke-linejoin:round;stroke:rgb(0%,51.764709%,0%);stroke-opacity:1;stroke-miterlimit:4;" d="M 36999.960362 21499.985331 L 36999.960362 22000.089002 " transform="matrix(0.0219475,0,0,0.0218939,-785.051635,-338.320049)"/>
<path style="fill:none;stroke-width:60;stroke-linecap:round;stroke-linejoin:round;stroke:rgb(0%,51.764709%,0%);stroke-opacity:1;stroke-miterlimit:4;" d="M 36999.960362 22000.089002 L 38499.99085 22000.089002 " transform="matrix(0.0219475,0,0,0.0218939,-785.051635,-338.320049)"/>
<path style="fill:none;stroke-width:60;stroke-linecap:round;stroke-linejoin:round;stroke:rgb(0%,51.764709%,0%);stroke-opacity:1;stroke-miterlimit:4;" d="M 36999.960362 22000.089002 L 36999.960362 22500.014254 " transform="matrix(0.0219475,0,0,0.0218939,-785.051635,-338.320049)"/>
<path style="fill:none;stroke-width:60;stroke-linecap:round;stroke-linejoin:round;stroke:rgb(51.764709%,51.764709%,0%);stroke-opacity:1;stroke-miterlimit:4;" d="M 39240.039114 21959.945111 L 39410.011719 21959.945111 " transform="matrix(0.0219475,0,0,0.0218939,-785.051635,-338.320049)"/>
<path style="fill:none;stroke-width:60;stroke-linecap:round;stroke-linejoin:round;stroke:rgb(51.764709%,51.764709%,0%);stroke-opacity:1;stroke-miterlimit:4;" d="M 39479.958561 22220.077523 L 39240.039114 22220.077523 L 39240.039114 21719.973853 L 39479.958561 21719.973853 " transform="matrix(0.0219475,0,0,0.0218939,-785.051635,-338.320049)"/>
<path style="fill:none;stroke-width:60;stroke-linecap:round;stroke-linejoin:round;stroke:rgb(51.764709%,51.764709%,0%);stroke-opacity:1;stroke-miterlimit:4;" d="M 39699.944048 21890.005532 L 39699.944048 22220.077523 " transform="matrix(0.0219475,0,0,0.0218939,-785.051635,-338.320049)"/>
<path style="fill:none;stroke-width:60;stroke-linecap:round;stroke-linejoin:round;stroke:rgb(51.764709%,51.764709%,0%);stroke-opacity:1;stroke-miterlimit:4;" d="M 39699.944048 21939.962374 L 39720.055989 21909.988269 L 39770.068871 21890.005532 L 39840.015713 21890.005532 L 39890.028595 21909.988269 L 39909.962555 21959.945111 L 39909.962555 22220.077523 " transform="matrix(0.0219475,0,0,0.0218939,-785.051635,-338.320049)"/>
<path style="fill:none;stroke-width:60;stroke-linecap:round;stroke-linejoin:round;stroke:rgb(51.764709%,51.764709%,0%);stroke-opacity:1;stroke-miterlimit:4;" d="M 40079.93516 21890.005532 L 40270.019707 21890.005532 " transform="matrix(0.0219475,0,0,0.0218939,-785.051635,-338.320049)"/>
<path style="fill:none;stroke-width:60;stroke-linecap:round;stroke-linejoin:round;stroke:rgb(51.764709%,51.764709%,0%);stroke-opacity:1;stroke-miterlimit:4;" d="M 40150.059983 21719.973853 L 40150.059983 22149.959527 L 40169.993943 22199.916369 L 40220.006825 22220.077523 L 40270.019707 22220.077523 " transform="matrix(0.0219475,0,0,0.0218939,-785.051635,-338.320049)"/>
<path style="fill:none;stroke-width:60;stroke-linecap:round;stroke-linejoin:round;stroke:rgb(51.764709%,51.764709%,0%);stroke-opacity:1;stroke-miterlimit:4;" d="M 40430.025332 22220.077523 L 40430.025332 21890.005532 " transform="matrix(0.0219475,0,0,0.0218939,-785.051635,-338.320049)"/>
<path style="fill:none;stroke-width:60;stroke-linecap:round;stroke-linejoin:round;stroke:rgb(51.764709%,51.764709%,0%);stroke-opacity:1;stroke-miterlimit:4;" d="M 40430.025332 21979.927848 L 40459.926272 21939.962374 L 40480.038213 21909.988269 L 40530.051095 21890.005532 L 40580.063977 21890.005532 " transform="matrix(0.0219475,0,0,0.0218939,-785.051635,-338.320049)"/>
<path style="fill:none;stroke-width:60;stroke-linecap:round;stroke-linejoin:round;stroke:rgb(51.764709%,51.764709%,0%);stroke-opacity:1;stroke-miterlimit:4;" d="M 40929.976167 22199.916369 L 40889.930265 22220.077523 L 40790.082484 22220.077523 L 40740.069602 22199.916369 L 40719.95766 22149.959527 L 40719.95766 21959.945111 L 40740.069602 21909.988269 L 40790.082484 21890.005532 L 40889.930265 21890.005532 L 40929.976167 21909.988269 L 40960.055089 21959.945111 L 40960.055089 22010.08037 L 40719.95766 22050.045843 " transform="matrix(0.0219475,0,0,0.0218939,-785.051635,-338.320049)"/>
<path style="fill:none;stroke-width:60;stroke-linecap:round;stroke-linejoin:round;stroke:rgb(51.764709%,51.764709%,0%);stroke-opacity:1;stroke-miterlimit:4;" d="M 41359.980161 22199.916369 L 41319.934259 22220.077523 L 41220.086478 22220.077523 L 41170.073596 22199.916369 L 41149.961654 22149.959527 L 41149.961654 21959.945111 L 41170.073596 21909.988269 L 41220.086478 21890.005532 L 41319.934259 21890.005532 L 41359.980161 21909.988269 L 41390.059083 21959.945111 L 41390.059083 22010.08037 L 41149.961654 22050.045843 " transform="matrix(0.0219475,0,0,0.0218939,-785.051635,-338.320049)"/>
<path style="fill:none;stroke-width:60;stroke-linecap:round;stroke-linejoin:round;stroke:rgb(51.764709%,51.764709%,0%);stroke-opacity:1;stroke-miterlimit:4;" d="M 41479.939884 22270.034365 L 41859.930996 22270.034365 " transform="matrix(0.0219475,0,0,0.0218939,-785.051635,-338.320049)"/>
<path style="fill:none;stroke-width:60;stroke-linecap:round;stroke-linejoin:round;stroke:rgb(51.764709%,51.764709%,0%);stroke-opacity:1;stroke-miterlimit:4;" d="M 41980.068702 22220.077523 L 41980.068702 21719.973853 L 42150.041307 22080.019948 L 42320.013912 21719.973853 L 42320.013912 22220.077523 " transform="matrix(0.0219475,0,0,0.0218939,-785.051635,-338.320049)"/>
<path style="fill:none;stroke-width:60;stroke-linecap:round;stroke-linejoin:round;stroke:rgb(51.764709%,51.764709%,0%);stroke-opacity:1;stroke-miterlimit:4;" d="M 42549.966379 22220.077523 L 42549.966379 21890.005532 " transform="matrix(0.0219475,0,0,0.0218939,-785.051635,-338.320049)"/>
<path style="fill:none;stroke-width:60;stroke-linecap:round;stroke-linejoin:round;stroke:rgb(51.764709%,51.764709%,0%);stroke-opacity:1;stroke-miterlimit:4;" d="M 42549.966379 21719.973853 L 42530.032419 21749.947958 L 42549.966379 21769.930695 L 42580.0453 21749.947958 L 42549.966379 21719.973853 L 42549.966379 21769.930695 " transform="matrix(0.0219475,0,0,0.0218939,-785.051635,-338.320049)"/>
<path style="fill:none;stroke-width:60;stroke-linecap:round;stroke-linejoin:round;stroke:rgb(51.764709%,51.764709%,0%);stroke-opacity:1;stroke-miterlimit:4;" d="M 43010.049294 22199.916369 L 42960.036413 22220.077523 L 42860.010649 22220.077523 L 42819.964747 22199.916369 L 42790.063807 22169.942264 L 42769.951866 22129.97679 L 42769.951866 21979.927848 L 42790.063807 21939.962374 L 42819.964747 21909.988269 L 42860.010649 21890.005532 L 42960.036413 21890.005532 L 43010.049294 21909.988269 " transform="matrix(0.0219475,0,0,0.0218939,-785.051635,-338.320049)"/>
<path style="fill:none;stroke-width:60;stroke-linecap:round;stroke-linejoin:round;stroke:rgb(51.764709%,51.764709%,0%);stroke-opacity:1;stroke-miterlimit:4;" d="M 43220.067801 22220.077523 L 43220.067801 21890.005532 " transform="matrix(0.0219475,0,0,0.0218939,-785.051635,-338.320049)"/>
<path style="fill:none;stroke-width:60;stroke-linecap:round;stroke-linejoin:round;stroke:rgb(51.764709%,51.764709%,0%);stroke-opacity:1;stroke-miterlimit:4;" d="M 43220.067801 21979.927848 L 43240.001761 21939.962374 L 43270.080683 21909.988269 L 43319.915583 21890.005532 L 43359.961485 21890.005532 " transform="matrix(0.0219475,0,0,0.0218939,-785.051635,-338.320049)"/>
<path style="fill:none;stroke-width:60;stroke-linecap:round;stroke-linejoin:round;stroke:rgb(51.764709%,51.764709%,0%);stroke-opacity:1;stroke-miterlimit:4;" d="M 43600.058913 22220.077523 L 43550.046031 22199.916369 L 43529.93409 22169.942264 L 43510.00013 22129.97679 L 43510.00013 21979.927848 L 43529.93409 21939.962374 L 43550.046031 21909.988269 L 43600.058913 21890.005532 L 43670.005755 21890.005532 L 43720.018637 21909.988269 L 43739.952597 21939.962374 L 43770.031518 21979.927848 L 43770.031518 22129.97679 L 43739.952597 22169.942264 L 43720.018637 22199.916369 L 43670.005755 22220.077523 L 43600.058913 22220.077523 " transform="matrix(0.0219475,0,0,0.0218939,-785.051635,-338.320049)"/>
<path style="fill:none;stroke-width:60;stroke-linecap:round;stroke-linejoin:round;stroke:rgb(51.764709%,51.764709%,0%);stroke-opacity:1;stroke-miterlimit:4;" d="M 43980.050025 22220.077523 L 43980.050025 21719.973853 " transform="matrix(0.0219475,0,0,0.0218939,-785.051635,-338.320049)"/>
<path style="fill:none;stroke-width:60;stroke-linecap:round;stroke-linejoin:round;stroke:rgb(51.764709%,51.764709%,0%);stroke-opacity:1;stroke-miterlimit:4;" d="M 43980.050025 21909.988269 L 44030.062907 21890.005532 L 44130.08867 21890.005532 L 44169.95659 21909.988269 L 44200.035512 21939.962374 L 44219.969472 21979.927848 L 44219.969472 22129.97679 L 44200.035512 22169.942264 L 44169.95659 22199.916369 L 44130.08867 22220.077523 L 44030.062907 22220.077523 L 43980.050025 22199.916369 " transform="matrix(0.0219475,0,0,0.0218939,-785.051635,-338.320049)"/>
<path style="fill:none;stroke-width:60;stroke-linecap:round;stroke-linejoin:round;stroke:rgb(51.764709%,51.764709%,0%);stroke-opacity:1;stroke-miterlimit:4;" d="M 44429.987979 22220.077523 L 44429.987979 21890.005532 " transform="matrix(0.0219475,0,0,0.0218939,-785.051635,-338.320049)"/>
<path style="fill:none;stroke-width:60;stroke-linecap:round;stroke-linejoin:round;stroke:rgb(51.764709%,51.764709%,0%);stroke-opacity:1;stroke-miterlimit:4;" d="M 44429.987979 21719.973853 L 44410.054019 21749.947958 L 44429.987979 21769.930695 L 44460.066901 21749.947958 L 44429.987979 21719.973853 L 44429.987979 21769.930695 " transform="matrix(0.0219475,0,0,0.0218939,-785.051635,-338.320049)"/>
<path style="fill:none;stroke-width:60;stroke-linecap:round;stroke-linejoin:round;stroke:rgb(51.764709%,51.764709%,0%);stroke-opacity:1;stroke-miterlimit:4;" d="M 44599.960584 21890.005532 L 44790.045131 21890.005532 " transform="matrix(0.0219475,0,0,0.0218939,-785.051635,-338.320049)"/>
<path style="fill:none;stroke-width:60;stroke-linecap:round;stroke-linejoin:round;stroke:rgb(51.764709%,51.764709%,0%);stroke-opacity:1;stroke-miterlimit:4;" d="M 44670.085408 21719.973853 L 44670.085408 22149.959527 L 44699.986348 22199.916369 L 44740.032249 22220.077523 L 44790.045131 22220.077523 " transform="matrix(0.0219475,0,0,0.0218939,-785.051635,-338.320049)"/>
<path style="fill:none;stroke-width:100;stroke-linecap:round;stroke-linejoin:round;stroke:rgb(51.764709%,51.764709%,0%);stroke-opacity:1;stroke-miterlimit:4;" d="M 38499.99085 22000.089002 L 38750.055258 22250.051628 L 38999.941685 22250.051628 L 38999.941685 21749.947958 L 38750.055258 21749.947958 Z M 38499.99085 22000.089002 " transform="matrix(0.0219475,0,0,0.0218939,-785.051635,-338.320049)"/>
<path style="fill-rule:nonzero;fill:rgb(0%,51.764709%,0%);fill-opacity:1;stroke-width:100;stroke-linecap:round;stroke-linejoin:round;stroke:rgb(0%,51.764709%,0%);stroke-opacity:1;stroke-miterlimit:4;" d="M 37200.011889 22000.089002 C 37200.011889 22110.529305 37110.48705 22199.916369 36999.960362 22199.916369 C 36889.611655 22199.916369 36800.086817 22110.529305 36800.086817 22000.089002 C 36800.086817 21889.47028 36889.611655 21800.083217 36999.960362 21800.083217 C 37110.48705 21800.083217 37200.011889 21889.47028 37200.011889 22000.089002 Z M 37200.011889 22000.089002 " transform="matrix(0.0219475,0,0,0.0218939,-785.051635,-338.320049)"/>
</g>
</svg>
