<?xml version="1.0" encoding="utf-8" standalone="no"?>
<!DOCTYPE svg PUBLIC "-//W3C//DTD SVG 1.1//EN"
  "http://www.w3.org/Graphics/SVG/1.1/DTD/svg11.dtd">
<svg height="519.284278pt" version="1.1" viewBox="0 0 142.92 519.284278" width="142.92pt" xmlns="http://www.w3.org/2000/svg" xmlns:xlink="http://www.w3.org/1999/xlink">
 <metadata>
  <rdf:RDF xmlns:cc="http://creativecommons.org/ns#" xmlns:dc="http://purl.org/dc/elements/1.1/" xmlns:rdf="http://www.w3.org/1999/02/22-rdf-syntax-ns#">
   <cc:Work>
    <dc:type rdf:resource="http://purl.org/dc/dcmitype/StillImage"/>
    <dc:date>2021-09-13T22:42:03.916663</dc:date>
    <dc:format>image/svg+xml</dc:format>
    <dc:creator>
     <cc:Agent>
      <dc:title>Matplotlib v3.4.2, https://matplotlib.org/</dc:title>
     </cc:Agent>
    </dc:creator>
   </cc:Work>
  </rdf:RDF>
 </metadata>
 <defs>
  <style type="text/css">*{stroke-linecap:butt;stroke-linejoin:round;}</style>
 </defs>
 <g id="figure_1">
  <g id="patch_1">
   <path d="M 0 519.284278 
L 142.92 519.284278 
L 142.92 0 
L 0 0 
z
" style="fill:none;"/>
  </g>
  <g id="axes_1">
   <g id="patch_2">
    <path clip-path="url(#pa67c2c4fbb)" d="M 73.755 65.332139 
L 71.46 71.452139 
L 69.165 65.332139 
z
"/>
   </g>
   <g id="patch_3">
    <path clip-path="url(#pa67c2c4fbb)" d="M 73.755 204.562139 
L 71.46 210.682139 
L 69.165 204.562139 
z
"/>
   </g>
   <g id="patch_4">
    <path clip-path="url(#pa67c2c4fbb)" d="M 73.755 267.292139 
L 71.46 273.412139 
L 69.165 267.292139 
z
"/>
   </g>
   <g id="patch_5">
    <path clip-path="url(#pa67c2c4fbb)" d="M 73.755 330.022139 
L 71.46 336.142139 
L 69.165 330.022139 
z
"/>
   </g>
   <g id="patch_6">
    <path clip-path="url(#pa67c2c4fbb)" d="M 73.755 392.752139 
L 71.46 398.872139 
L 69.165 392.752139 
z
"/>
   </g>
   <g id="patch_7">
    <path clip-path="url(#pa67c2c4fbb)" d="M 73.755 470.782139 
L 71.46 476.902139 
L 69.165 470.782139 
z
"/>
   </g>
   <g id="line2d_1">
    <path clip-path="url(#pa67c2c4fbb)" d="M 102.06 25.552139 
L 101.808774 27.50866 
L 101.059223 29.433054 
L 99.823653 31.293724 
L 98.122352 33.060118 
L 95.983257 34.70323 
L 93.44149 36.196082 
L 90.538788 37.514161 
L 87.322813 38.635823 
L 83.84637 39.542652 
L 80.166544 40.219757 
L 76.343757 40.65602 
L 72.440778 40.844278 
L 68.521695 40.78144 
L 64.650859 40.468536 
L 60.891829 39.910706 
L 57.306328 39.117108 
L 53.95323 38.100775 
L 50.887593 36.878392 
L 48.159754 35.470034 
L 45.814504 33.898823 
L 43.890353 32.19056 
L 42.418894 30.373295 
L 41.42429 28.476866 
L 40.922871 26.532413 
L 40.922871 24.571865 
L 41.42429 22.627412 
L 42.418894 20.730983 
L 43.890353 18.913718 
L 45.814504 17.205455 
L 48.159754 15.634245 
L 50.887593 14.225886 
L 53.95323 13.003504 
L 57.306328 11.98717 
L 60.891829 11.193572 
L 64.650859 10.635742 
L 68.521695 10.322839 
L 72.440778 10.26 
L 76.343757 10.448258 
L 80.166544 10.884521 
L 83.84637 11.561626 
L 87.322813 12.468455 
L 90.538788 13.590117 
L 93.44149 14.908196 
L 95.983257 16.401048 
L 98.122352 18.044161 
L 99.823653 19.810554 
L 101.059223 21.671224 
L 101.808774 23.595619 
L 102.06 25.552139 
" style="fill:none;stroke:#000000;stroke-linecap:round;stroke-width:2;"/>
   </g>
   <g id="line2d_2">
    <path clip-path="url(#pa67c2c4fbb)" d="M 71.46 40.852139 
L 71.46 56.152139 
L 71.46 71.452139 
" style="fill:none;stroke:#000000;stroke-linecap:round;stroke-width:2;"/>
   </g>
   <g id="line2d_3">
    <path clip-path="url(#pa67c2c4fbb)" d="M 71.46 62.272139 
L 71.46 65.332139 
" style="fill:none;stroke:#000000;stroke-linecap:square;stroke-width:2;"/>
   </g>
   <g id="line2d_4">
    <path clip-path="url(#pa67c2c4fbb)" d="M 71.46 71.452139 
L 71.46 72.217139 
L 71.46 72.982139 
" style="fill:none;stroke:#000000;stroke-linecap:round;stroke-width:2;"/>
   </g>
   <g id="line2d_5">
    <path clip-path="url(#pa67c2c4fbb)" d="M 71.46 72.982139 
L 86.76 72.982139 
L 102.06 72.982139 
" style="fill:none;stroke:#000000;stroke-linecap:round;stroke-width:2;"/>
   </g>
   <g id="line2d_6">
    <path clip-path="url(#pa67c2c4fbb)" d="M 102.06 72.982139 
L 109.71 80.632139 
L 117.36 88.282139 
" style="fill:none;stroke:#000000;stroke-linecap:round;stroke-width:2;"/>
   </g>
   <g id="line2d_7">
    <path clip-path="url(#pa67c2c4fbb)" d="M 117.36 88.282139 
L 117.36 103.582139 
L 117.36 118.882139 
" style="fill:none;stroke:#000000;stroke-linecap:round;stroke-width:2;"/>
   </g>
   <g id="line2d_8">
    <path clip-path="url(#pa67c2c4fbb)" d="M 117.36 118.882139 
L 71.46 118.882139 
L 25.56 118.882139 
" style="fill:none;stroke:#000000;stroke-linecap:round;stroke-width:2;"/>
   </g>
   <g id="line2d_9">
    <path clip-path="url(#pa67c2c4fbb)" d="M 25.56 118.882139 
L 25.56 103.582139 
L 25.56 88.282139 
" style="fill:none;stroke:#000000;stroke-linecap:round;stroke-width:2;"/>
   </g>
   <g id="line2d_10">
    <path clip-path="url(#pa67c2c4fbb)" d="M 48.51 95.932139 
" style="fill:none;stroke:#000000;stroke-linecap:round;stroke-width:2;"/>
   </g>
   <g id="line2d_11">
    <path clip-path="url(#pa67c2c4fbb)" d="M 25.56 88.282139 
L 33.21 80.632139 
L 40.86 72.982139 
" style="fill:none;stroke:#000000;stroke-linecap:round;stroke-width:2;"/>
   </g>
   <g id="line2d_12">
    <path clip-path="url(#pa67c2c4fbb)" d="M 40.86 72.982139 
L 56.16 72.982139 
L 71.46 72.982139 
" style="fill:none;stroke:#000000;stroke-linecap:round;stroke-width:2;"/>
   </g>
   <g id="line2d_13">
    <path clip-path="url(#pa67c2c4fbb)" d="M 71.46 118.882139 
L 71.46 134.182139 
L 71.46 149.482139 
" style="fill:none;stroke:#000000;stroke-linecap:round;stroke-width:2;"/>
   </g>
   <g id="line2d_14">
    <path clip-path="url(#pa67c2c4fbb)" d="M 71.46 149.482139 
L 132.66 149.482139 
L 117.36 180.082139 
L 10.26 180.082139 
L 25.56 149.482139 
L 71.46 149.482139 
" style="fill:none;stroke:#000000;stroke-linecap:round;stroke-width:2;"/>
   </g>
   <g id="line2d_15">
    <path clip-path="url(#pa67c2c4fbb)" d="M 71.46 180.082139 
L 71.46 195.382139 
L 71.46 210.682139 
" style="fill:none;stroke:#000000;stroke-linecap:round;stroke-width:2;"/>
   </g>
   <g id="line2d_16">
    <path clip-path="url(#pa67c2c4fbb)" d="M 71.46 201.502139 
L 71.46 204.562139 
" style="fill:none;stroke:#000000;stroke-linecap:square;stroke-width:2;"/>
   </g>
   <g id="line2d_17">
    <path clip-path="url(#pa67c2c4fbb)" d="M 71.46 210.682139 
L 71.46 211.447139 
L 71.46 212.212139 
" style="fill:none;stroke:#000000;stroke-linecap:round;stroke-width:2;"/>
   </g>
   <g id="line2d_18">
    <path clip-path="url(#pa67c2c4fbb)" d="M 71.46 212.212139 
L 132.66 212.212139 
L 132.66 242.812139 
L 10.26 242.812139 
L 10.26 212.212139 
L 71.46 212.212139 
" style="fill:none;stroke:#000000;stroke-linecap:round;stroke-width:2;"/>
   </g>
   <g id="line2d_19">
    <path clip-path="url(#pa67c2c4fbb)" d="M 71.46 242.812139 
L 71.46 258.112139 
L 71.46 273.412139 
" style="fill:none;stroke:#000000;stroke-linecap:round;stroke-width:2;"/>
   </g>
   <g id="line2d_20">
    <path clip-path="url(#pa67c2c4fbb)" d="M 71.46 264.232139 
L 71.46 267.292139 
" style="fill:none;stroke:#000000;stroke-linecap:square;stroke-width:2;"/>
   </g>
   <g id="line2d_21">
    <path clip-path="url(#pa67c2c4fbb)" d="M 71.46 273.412139 
L 71.46 274.177139 
L 71.46 274.942139 
" style="fill:none;stroke:#000000;stroke-linecap:round;stroke-width:2;"/>
   </g>
   <g id="line2d_22">
    <path clip-path="url(#pa67c2c4fbb)" d="M 71.46 274.942139 
L 132.66 274.942139 
L 117.36 305.542139 
L 10.26 305.542139 
L 25.56 274.942139 
L 71.46 274.942139 
" style="fill:none;stroke:#000000;stroke-linecap:round;stroke-width:2;"/>
   </g>
   <g id="line2d_23">
    <path clip-path="url(#pa67c2c4fbb)" d="M 71.46 305.542139 
L 71.46 320.842139 
L 71.46 336.142139 
" style="fill:none;stroke:#000000;stroke-linecap:round;stroke-width:2;"/>
   </g>
   <g id="line2d_24">
    <path clip-path="url(#pa67c2c4fbb)" d="M 71.46 326.962139 
L 71.46 330.022139 
" style="fill:none;stroke:#000000;stroke-linecap:square;stroke-width:2;"/>
   </g>
   <g id="line2d_25">
    <path clip-path="url(#pa67c2c4fbb)" d="M 71.46 336.142139 
L 71.46 336.907139 
L 71.46 337.672139 
" style="fill:none;stroke:#000000;stroke-linecap:round;stroke-width:2;"/>
   </g>
   <g id="line2d_26">
    <path clip-path="url(#pa67c2c4fbb)" d="M 71.46 337.672139 
L 117.36 337.672139 
L 117.36 368.272139 
L 25.56 368.272139 
L 25.56 337.672139 
L 71.46 337.672139 
" style="fill:none;stroke:#000000;stroke-linecap:round;stroke-width:2;"/>
   </g>
   <g id="line2d_27">
    <path clip-path="url(#pa67c2c4fbb)" d="M 71.46 368.272139 
L 71.46 383.572139 
L 71.46 398.872139 
" style="fill:none;stroke:#000000;stroke-linecap:round;stroke-width:2;"/>
   </g>
   <g id="line2d_28">
    <path clip-path="url(#pa67c2c4fbb)" d="M 71.46 389.692139 
L 71.46 392.752139 
" style="fill:none;stroke:#000000;stroke-linecap:square;stroke-width:2;"/>
   </g>
   <g id="line2d_29">
    <path clip-path="url(#pa67c2c4fbb)" d="M 71.46 398.872139 
L 71.46 399.637139 
L 71.46 400.402139 
" style="fill:none;stroke:#000000;stroke-linecap:round;stroke-width:2;"/>
   </g>
   <g id="line2d_30">
    <path clip-path="url(#pa67c2c4fbb)" d="M 71.46 400.402139 
L 94.41 400.402139 
L 117.36 400.402139 
" style="fill:none;stroke:#000000;stroke-linecap:round;stroke-width:2;"/>
   </g>
   <g id="line2d_31">
    <path clip-path="url(#pa67c2c4fbb)" d="M 117.36 400.402139 
L 117.36 415.702139 
L 117.36 431.002139 
" style="fill:none;stroke:#000000;stroke-linecap:round;stroke-width:2;"/>
   </g>
   <g id="line2d_32">
    <path clip-path="url(#pa67c2c4fbb)" d="M 117.36 431.002139 
L 109.71 438.652139 
L 102.06 446.302139 
" style="fill:none;stroke:#000000;stroke-linecap:round;stroke-width:2;"/>
   </g>
   <g id="line2d_33">
    <path clip-path="url(#pa67c2c4fbb)" d="M 102.06 446.302139 
L 86.76 446.302139 
L 71.46 446.302139 
" style="fill:none;stroke:#000000;stroke-linecap:round;stroke-width:2;"/>
   </g>
   <g id="line2d_34">
    <path clip-path="url(#pa67c2c4fbb)" d="M 71.46 446.302139 
L 56.16 446.302139 
L 40.86 446.302139 
" style="fill:none;stroke:#000000;stroke-linecap:round;stroke-width:2;"/>
   </g>
   <g id="line2d_35">
    <path clip-path="url(#pa67c2c4fbb)" d="M 40.86 446.302139 
L 33.21 438.652139 
L 25.56 431.002139 
" style="fill:none;stroke:#000000;stroke-linecap:round;stroke-width:2;"/>
   </g>
   <g id="line2d_36">
    <path clip-path="url(#pa67c2c4fbb)" d="M 25.56 431.002139 
L 25.56 415.702139 
L 25.56 400.402139 
" style="fill:none;stroke:#000000;stroke-linecap:round;stroke-width:2;"/>
   </g>
   <g id="line2d_37">
    <path clip-path="url(#pa67c2c4fbb)" d="M 25.56 400.402139 
L 48.51 400.402139 
L 71.46 400.402139 
" style="fill:none;stroke:#000000;stroke-linecap:round;stroke-width:2;"/>
   </g>
   <g id="line2d_38">
    <path clip-path="url(#pa67c2c4fbb)" d="M 40.86 423.352139 
" style="fill:none;stroke:#000000;stroke-linecap:round;stroke-width:2;"/>
   </g>
   <g id="line2d_39">
    <path clip-path="url(#pa67c2c4fbb)" d="M 71.46 446.302139 
" style="fill:none;stroke:#000000;stroke-linecap:round;stroke-width:2;"/>
   </g>
   <g id="line2d_40">
    <path clip-path="url(#pa67c2c4fbb)" d="M 71.46 446.302139 
L 71.46 461.602139 
L 71.46 476.902139 
" style="fill:none;stroke:#000000;stroke-linecap:round;stroke-width:2;"/>
   </g>
   <g id="line2d_41">
    <path clip-path="url(#pa67c2c4fbb)" d="M 71.46 467.722139 
L 71.46 470.782139 
" style="fill:none;stroke:#000000;stroke-linecap:square;stroke-width:2;"/>
   </g>
   <g id="line2d_42">
    <path clip-path="url(#pa67c2c4fbb)" d="M 71.46 476.902139 
L 71.46 477.667139 
L 71.46 478.432139 
" style="fill:none;stroke:#000000;stroke-linecap:round;stroke-width:2;"/>
   </g>
   <g id="line2d_43">
    <path clip-path="url(#pa67c2c4fbb)" d="M 102.06 493.732139 
L 101.808774 495.68866 
L 101.059223 497.613054 
L 99.823653 499.473724 
L 98.122352 501.240118 
L 95.983257 502.88323 
L 93.44149 504.376082 
L 90.538788 505.694161 
L 87.322813 506.815823 
L 83.84637 507.722652 
L 80.166544 508.399757 
L 76.343757 508.83602 
L 72.440778 509.024278 
L 68.521695 508.96144 
L 64.650859 508.648536 
L 60.891829 508.090706 
L 57.306328 507.297108 
L 53.95323 506.280775 
L 50.887593 505.058392 
L 48.159754 503.650034 
L 45.814504 502.078823 
L 43.890353 500.37056 
L 42.418894 498.553295 
L 41.42429 496.656866 
L 40.922871 494.712413 
L 40.922871 492.751865 
L 41.42429 490.807412 
L 42.418894 488.910983 
L 43.890353 487.093718 
L 45.814504 485.385455 
L 48.159754 483.814245 
L 50.887593 482.405886 
L 53.95323 481.183504 
L 57.306328 480.16717 
L 60.891829 479.373572 
L 64.650859 478.815742 
L 68.521695 478.502839 
L 72.440778 478.44 
L 76.343757 478.628258 
L 80.166544 479.064521 
L 83.84637 479.741626 
L 87.322813 480.648455 
L 90.538788 481.770117 
L 93.44149 483.088196 
L 95.983257 484.581048 
L 98.122352 486.224161 
L 99.823653 487.990554 
L 101.059223 489.851224 
L 101.808774 491.775619 
L 102.06 493.732139 
" style="fill:none;stroke:#000000;stroke-linecap:round;stroke-width:2;"/>
   </g>
   <g id="text_1">
    <!-- DÉBUT -->
    <g transform="translate(49.192373 29.139327)scale(0.13 -0.13)">
     <defs>
      <path d="M 1259 4147 
L 1259 519 
L 2022 519 
Q 2988 519 3436 956 
Q 3884 1394 3884 2338 
Q 3884 3275 3436 3711 
Q 2988 4147 2022 4147 
L 1259 4147 
z
M 628 4666 
L 1925 4666 
Q 3281 4666 3915 4102 
Q 4550 3538 4550 2338 
Q 4550 1131 3912 565 
Q 3275 0 1925 0 
L 628 0 
L 628 4666 
z
" id="DejaVuSans-44" transform="scale(0.015625)"/>
      <path d="M 628 4666 
L 3578 4666 
L 3578 4134 
L 1259 4134 
L 1259 2753 
L 3481 2753 
L 3481 2222 
L 1259 2222 
L 1259 531 
L 3634 531 
L 3634 0 
L 628 0 
L 628 4666 
z
M 2266 5935 
L 2844 5935 
L 2131 5110 
L 1653 5110 
L 2266 5935 
z
" id="DejaVuSans-c9" transform="scale(0.015625)"/>
      <path d="M 1259 2228 
L 1259 519 
L 2272 519 
Q 2781 519 3026 730 
Q 3272 941 3272 1375 
Q 3272 1813 3026 2020 
Q 2781 2228 2272 2228 
L 1259 2228 
z
M 1259 4147 
L 1259 2741 
L 2194 2741 
Q 2656 2741 2882 2914 
Q 3109 3088 3109 3444 
Q 3109 3797 2882 3972 
Q 2656 4147 2194 4147 
L 1259 4147 
z
M 628 4666 
L 2241 4666 
Q 2963 4666 3353 4366 
Q 3744 4066 3744 3513 
Q 3744 3084 3544 2831 
Q 3344 2578 2956 2516 
Q 3422 2416 3680 2098 
Q 3938 1781 3938 1306 
Q 3938 681 3513 340 
Q 3088 0 2303 0 
L 628 0 
L 628 4666 
z
" id="DejaVuSans-42" transform="scale(0.015625)"/>
      <path d="M 556 4666 
L 1191 4666 
L 1191 1831 
Q 1191 1081 1462 751 
Q 1734 422 2344 422 
Q 2950 422 3222 751 
Q 3494 1081 3494 1831 
L 3494 4666 
L 4128 4666 
L 4128 1753 
Q 4128 841 3676 375 
Q 3225 -91 2344 -91 
Q 1459 -91 1007 375 
Q 556 841 556 1753 
L 556 4666 
z
" id="DejaVuSans-55" transform="scale(0.015625)"/>
      <path d="M -19 4666 
L 3928 4666 
L 3928 4134 
L 2272 4134 
L 2272 0 
L 1638 0 
L 1638 4134 
L -19 4134 
L -19 4666 
z
" id="DejaVuSans-54" transform="scale(0.015625)"/>
     </defs>
     <use xlink:href="#DejaVuSans-44"/>
     <use x="77.001953" xlink:href="#DejaVuSans-c9"/>
     <use x="140.185547" xlink:href="#DejaVuSans-42"/>
     <use x="208.789062" xlink:href="#DejaVuSans-55"/>
     <use x="281.982422" xlink:href="#DejaVuSans-54"/>
    </g>
   </g>
   <g id="text_2">
    <!-- Boucle -->
    <g transform="translate(51.57 99.519327)scale(0.13 -0.13)">
     <defs>
      <path d="M 1959 3097 
Q 1497 3097 1228 2736 
Q 959 2375 959 1747 
Q 959 1119 1226 758 
Q 1494 397 1959 397 
Q 2419 397 2687 759 
Q 2956 1122 2956 1747 
Q 2956 2369 2687 2733 
Q 2419 3097 1959 3097 
z
M 1959 3584 
Q 2709 3584 3137 3096 
Q 3566 2609 3566 1747 
Q 3566 888 3137 398 
Q 2709 -91 1959 -91 
Q 1206 -91 779 398 
Q 353 888 353 1747 
Q 353 2609 779 3096 
Q 1206 3584 1959 3584 
z
" id="DejaVuSans-6f" transform="scale(0.015625)"/>
      <path d="M 544 1381 
L 544 3500 
L 1119 3500 
L 1119 1403 
Q 1119 906 1312 657 
Q 1506 409 1894 409 
Q 2359 409 2629 706 
Q 2900 1003 2900 1516 
L 2900 3500 
L 3475 3500 
L 3475 0 
L 2900 0 
L 2900 538 
Q 2691 219 2414 64 
Q 2138 -91 1772 -91 
Q 1169 -91 856 284 
Q 544 659 544 1381 
z
M 1991 3584 
L 1991 3584 
z
" id="DejaVuSans-75" transform="scale(0.015625)"/>
      <path d="M 3122 3366 
L 3122 2828 
Q 2878 2963 2633 3030 
Q 2388 3097 2138 3097 
Q 1578 3097 1268 2742 
Q 959 2388 959 1747 
Q 959 1106 1268 751 
Q 1578 397 2138 397 
Q 2388 397 2633 464 
Q 2878 531 3122 666 
L 3122 134 
Q 2881 22 2623 -34 
Q 2366 -91 2075 -91 
Q 1284 -91 818 406 
Q 353 903 353 1747 
Q 353 2603 823 3093 
Q 1294 3584 2113 3584 
Q 2378 3584 2631 3529 
Q 2884 3475 3122 3366 
z
" id="DejaVuSans-63" transform="scale(0.015625)"/>
      <path d="M 603 4863 
L 1178 4863 
L 1178 0 
L 603 0 
L 603 4863 
z
" id="DejaVuSans-6c" transform="scale(0.015625)"/>
      <path d="M 3597 1894 
L 3597 1613 
L 953 1613 
Q 991 1019 1311 708 
Q 1631 397 2203 397 
Q 2534 397 2845 478 
Q 3156 559 3463 722 
L 3463 178 
Q 3153 47 2828 -22 
Q 2503 -91 2169 -91 
Q 1331 -91 842 396 
Q 353 884 353 1716 
Q 353 2575 817 3079 
Q 1281 3584 2069 3584 
Q 2775 3584 3186 3129 
Q 3597 2675 3597 1894 
z
M 3022 2063 
Q 3016 2534 2758 2815 
Q 2500 3097 2075 3097 
Q 1594 3097 1305 2825 
Q 1016 2553 972 2059 
L 3022 2063 
z
" id="DejaVuSans-65" transform="scale(0.015625)"/>
     </defs>
     <use xlink:href="#DejaVuSans-42"/>
     <use x="68.603516" xlink:href="#DejaVuSans-6f"/>
     <use x="129.785156" xlink:href="#DejaVuSans-75"/>
     <use x="193.164062" xlink:href="#DejaVuSans-63"/>
     <use x="248.144531" xlink:href="#DejaVuSans-6c"/>
     <use x="275.927734" xlink:href="#DejaVuSans-65"/>
    </g>
   </g>
   <g id="text_3">
    <!-- Allumer LED -->
    <g transform="translate(31.479922 161.090748)scale(0.13 -0.13)">
     <defs>
      <path d="M 2188 4044 
L 1331 1722 
L 3047 1722 
L 2188 4044 
z
M 1831 4666 
L 2547 4666 
L 4325 0 
L 3669 0 
L 3244 1197 
L 1141 1197 
L 716 0 
L 50 0 
L 1831 4666 
z
" id="DejaVuSans-41" transform="scale(0.015625)"/>
      <path d="M 3328 2828 
Q 3544 3216 3844 3400 
Q 4144 3584 4550 3584 
Q 5097 3584 5394 3201 
Q 5691 2819 5691 2113 
L 5691 0 
L 5113 0 
L 5113 2094 
Q 5113 2597 4934 2840 
Q 4756 3084 4391 3084 
Q 3944 3084 3684 2787 
Q 3425 2491 3425 1978 
L 3425 0 
L 2847 0 
L 2847 2094 
Q 2847 2600 2669 2842 
Q 2491 3084 2119 3084 
Q 1678 3084 1418 2786 
Q 1159 2488 1159 1978 
L 1159 0 
L 581 0 
L 581 3500 
L 1159 3500 
L 1159 2956 
Q 1356 3278 1631 3431 
Q 1906 3584 2284 3584 
Q 2666 3584 2933 3390 
Q 3200 3197 3328 2828 
z
" id="DejaVuSans-6d" transform="scale(0.015625)"/>
      <path d="M 2631 2963 
Q 2534 3019 2420 3045 
Q 2306 3072 2169 3072 
Q 1681 3072 1420 2755 
Q 1159 2438 1159 1844 
L 1159 0 
L 581 0 
L 581 3500 
L 1159 3500 
L 1159 2956 
Q 1341 3275 1631 3429 
Q 1922 3584 2338 3584 
Q 2397 3584 2469 3576 
Q 2541 3569 2628 3553 
L 2631 2963 
z
" id="DejaVuSans-72" transform="scale(0.015625)"/>
      <path id="DejaVuSans-20" transform="scale(0.015625)"/>
      <path d="M 628 4666 
L 1259 4666 
L 1259 531 
L 3531 531 
L 3531 0 
L 628 0 
L 628 4666 
z
" id="DejaVuSans-4c" transform="scale(0.015625)"/>
      <path d="M 628 4666 
L 3578 4666 
L 3578 4134 
L 1259 4134 
L 1259 2753 
L 3481 2753 
L 3481 2222 
L 1259 2222 
L 1259 531 
L 3634 531 
L 3634 0 
L 628 0 
L 628 4666 
z
" id="DejaVuSans-45" transform="scale(0.015625)"/>
     </defs>
     <use xlink:href="#DejaVuSans-41"/>
     <use x="68.408203" xlink:href="#DejaVuSans-6c"/>
     <use x="96.191406" xlink:href="#DejaVuSans-6c"/>
     <use x="123.974609" xlink:href="#DejaVuSans-75"/>
     <use x="187.353516" xlink:href="#DejaVuSans-6d"/>
     <use x="284.765625" xlink:href="#DejaVuSans-65"/>
     <use x="346.289062" xlink:href="#DejaVuSans-72"/>
     <use x="387.402344" xlink:href="#DejaVuSans-20"/>
     <use x="419.189453" xlink:href="#DejaVuSans-4c"/>
     <use x="474.902344" xlink:href="#DejaVuSans-45"/>
     <use x="538.085938" xlink:href="#DejaVuSans-44"/>
    </g>
    <!--  centrale -->
    <g transform="translate(42.692422 175.647905)scale(0.13 -0.13)">
     <defs>
      <path d="M 3513 2113 
L 3513 0 
L 2938 0 
L 2938 2094 
Q 2938 2591 2744 2837 
Q 2550 3084 2163 3084 
Q 1697 3084 1428 2787 
Q 1159 2491 1159 1978 
L 1159 0 
L 581 0 
L 581 3500 
L 1159 3500 
L 1159 2956 
Q 1366 3272 1645 3428 
Q 1925 3584 2291 3584 
Q 2894 3584 3203 3211 
Q 3513 2838 3513 2113 
z
" id="DejaVuSans-6e" transform="scale(0.015625)"/>
      <path d="M 1172 4494 
L 1172 3500 
L 2356 3500 
L 2356 3053 
L 1172 3053 
L 1172 1153 
Q 1172 725 1289 603 
Q 1406 481 1766 481 
L 2356 481 
L 2356 0 
L 1766 0 
Q 1100 0 847 248 
Q 594 497 594 1153 
L 594 3053 
L 172 3053 
L 172 3500 
L 594 3500 
L 594 4494 
L 1172 4494 
z
" id="DejaVuSans-74" transform="scale(0.015625)"/>
      <path d="M 2194 1759 
Q 1497 1759 1228 1600 
Q 959 1441 959 1056 
Q 959 750 1161 570 
Q 1363 391 1709 391 
Q 2188 391 2477 730 
Q 2766 1069 2766 1631 
L 2766 1759 
L 2194 1759 
z
M 3341 1997 
L 3341 0 
L 2766 0 
L 2766 531 
Q 2569 213 2275 61 
Q 1981 -91 1556 -91 
Q 1019 -91 701 211 
Q 384 513 384 1019 
Q 384 1609 779 1909 
Q 1175 2209 1959 2209 
L 2766 2209 
L 2766 2266 
Q 2766 2663 2505 2880 
Q 2244 3097 1772 3097 
Q 1472 3097 1187 3025 
Q 903 2953 641 2809 
L 641 3341 
Q 956 3463 1253 3523 
Q 1550 3584 1831 3584 
Q 2591 3584 2966 3190 
Q 3341 2797 3341 1997 
z
" id="DejaVuSans-61" transform="scale(0.015625)"/>
     </defs>
     <use xlink:href="#DejaVuSans-20"/>
     <use x="31.787109" xlink:href="#DejaVuSans-63"/>
     <use x="86.767578" xlink:href="#DejaVuSans-65"/>
     <use x="148.291016" xlink:href="#DejaVuSans-6e"/>
     <use x="211.669922" xlink:href="#DejaVuSans-74"/>
     <use x="250.878906" xlink:href="#DejaVuSans-72"/>
     <use x="291.992188" xlink:href="#DejaVuSans-61"/>
     <use x="353.271484" xlink:href="#DejaVuSans-6c"/>
     <use x="381.054688" xlink:href="#DejaVuSans-65"/>
    </g>
   </g>
   <g id="text_4">
    <!-- Attendre 500ms -->
    <g transform="translate(19.07 231.099327)scale(0.13 -0.13)">
     <defs>
      <path d="M 2906 2969 
L 2906 4863 
L 3481 4863 
L 3481 0 
L 2906 0 
L 2906 525 
Q 2725 213 2448 61 
Q 2172 -91 1784 -91 
Q 1150 -91 751 415 
Q 353 922 353 1747 
Q 353 2572 751 3078 
Q 1150 3584 1784 3584 
Q 2172 3584 2448 3432 
Q 2725 3281 2906 2969 
z
M 947 1747 
Q 947 1113 1208 752 
Q 1469 391 1925 391 
Q 2381 391 2643 752 
Q 2906 1113 2906 1747 
Q 2906 2381 2643 2742 
Q 2381 3103 1925 3103 
Q 1469 3103 1208 2742 
Q 947 2381 947 1747 
z
" id="DejaVuSans-64" transform="scale(0.015625)"/>
      <path d="M 691 4666 
L 3169 4666 
L 3169 4134 
L 1269 4134 
L 1269 2991 
Q 1406 3038 1543 3061 
Q 1681 3084 1819 3084 
Q 2600 3084 3056 2656 
Q 3513 2228 3513 1497 
Q 3513 744 3044 326 
Q 2575 -91 1722 -91 
Q 1428 -91 1123 -41 
Q 819 9 494 109 
L 494 744 
Q 775 591 1075 516 
Q 1375 441 1709 441 
Q 2250 441 2565 725 
Q 2881 1009 2881 1497 
Q 2881 1984 2565 2268 
Q 2250 2553 1709 2553 
Q 1456 2553 1204 2497 
Q 953 2441 691 2322 
L 691 4666 
z
" id="DejaVuSans-35" transform="scale(0.015625)"/>
      <path d="M 2034 4250 
Q 1547 4250 1301 3770 
Q 1056 3291 1056 2328 
Q 1056 1369 1301 889 
Q 1547 409 2034 409 
Q 2525 409 2770 889 
Q 3016 1369 3016 2328 
Q 3016 3291 2770 3770 
Q 2525 4250 2034 4250 
z
M 2034 4750 
Q 2819 4750 3233 4129 
Q 3647 3509 3647 2328 
Q 3647 1150 3233 529 
Q 2819 -91 2034 -91 
Q 1250 -91 836 529 
Q 422 1150 422 2328 
Q 422 3509 836 4129 
Q 1250 4750 2034 4750 
z
" id="DejaVuSans-30" transform="scale(0.015625)"/>
      <path d="M 2834 3397 
L 2834 2853 
Q 2591 2978 2328 3040 
Q 2066 3103 1784 3103 
Q 1356 3103 1142 2972 
Q 928 2841 928 2578 
Q 928 2378 1081 2264 
Q 1234 2150 1697 2047 
L 1894 2003 
Q 2506 1872 2764 1633 
Q 3022 1394 3022 966 
Q 3022 478 2636 193 
Q 2250 -91 1575 -91 
Q 1294 -91 989 -36 
Q 684 19 347 128 
L 347 722 
Q 666 556 975 473 
Q 1284 391 1588 391 
Q 1994 391 2212 530 
Q 2431 669 2431 922 
Q 2431 1156 2273 1281 
Q 2116 1406 1581 1522 
L 1381 1569 
Q 847 1681 609 1914 
Q 372 2147 372 2553 
Q 372 3047 722 3315 
Q 1072 3584 1716 3584 
Q 2034 3584 2315 3537 
Q 2597 3491 2834 3397 
z
" id="DejaVuSans-73" transform="scale(0.015625)"/>
     </defs>
     <use xlink:href="#DejaVuSans-41"/>
     <use x="66.658203" xlink:href="#DejaVuSans-74"/>
     <use x="105.867188" xlink:href="#DejaVuSans-74"/>
     <use x="145.076172" xlink:href="#DejaVuSans-65"/>
     <use x="206.599609" xlink:href="#DejaVuSans-6e"/>
     <use x="269.978516" xlink:href="#DejaVuSans-64"/>
     <use x="333.455078" xlink:href="#DejaVuSans-72"/>
     <use x="372.318359" xlink:href="#DejaVuSans-65"/>
     <use x="433.841797" xlink:href="#DejaVuSans-20"/>
     <use x="465.628906" xlink:href="#DejaVuSans-35"/>
     <use x="529.251953" xlink:href="#DejaVuSans-30"/>
     <use x="592.875" xlink:href="#DejaVuSans-30"/>
     <use x="656.498047" xlink:href="#DejaVuSans-6d"/>
     <use x="753.910156" xlink:href="#DejaVuSans-73"/>
    </g>
   </g>
   <g id="text_5">
    <!-- Éteindre LED -->
    <g transform="translate(29.428359 286.550748)scale(0.13 -0.13)">
     <defs>
      <path d="M 603 3500 
L 1178 3500 
L 1178 0 
L 603 0 
L 603 3500 
z
M 603 4863 
L 1178 4863 
L 1178 4134 
L 603 4134 
L 603 4863 
z
" id="DejaVuSans-69" transform="scale(0.015625)"/>
     </defs>
     <use xlink:href="#DejaVuSans-c9"/>
     <use x="63.183594" xlink:href="#DejaVuSans-74"/>
     <use x="102.392578" xlink:href="#DejaVuSans-65"/>
     <use x="163.916016" xlink:href="#DejaVuSans-69"/>
     <use x="191.699219" xlink:href="#DejaVuSans-6e"/>
     <use x="255.078125" xlink:href="#DejaVuSans-64"/>
     <use x="318.554688" xlink:href="#DejaVuSans-72"/>
     <use x="357.417969" xlink:href="#DejaVuSans-65"/>
     <use x="418.941406" xlink:href="#DejaVuSans-20"/>
     <use x="450.728516" xlink:href="#DejaVuSans-4c"/>
     <use x="506.441406" xlink:href="#DejaVuSans-45"/>
     <use x="569.625" xlink:href="#DejaVuSans-44"/>
    </g>
    <!--  centrale -->
    <g transform="translate(42.692422 301.107905)scale(0.13 -0.13)">
     <use xlink:href="#DejaVuSans-20"/>
     <use x="31.787109" xlink:href="#DejaVuSans-63"/>
     <use x="86.767578" xlink:href="#DejaVuSans-65"/>
     <use x="148.291016" xlink:href="#DejaVuSans-6e"/>
     <use x="211.669922" xlink:href="#DejaVuSans-74"/>
     <use x="250.878906" xlink:href="#DejaVuSans-72"/>
     <use x="291.992188" xlink:href="#DejaVuSans-61"/>
     <use x="353.271484" xlink:href="#DejaVuSans-6c"/>
     <use x="381.054688" xlink:href="#DejaVuSans-65"/>
    </g>
   </g>
   <g id="text_6">
    <!-- Attendre 1s -->
    <g transform="translate(33.672656 356.559327)scale(0.13 -0.13)">
     <defs>
      <path d="M 794 531 
L 1825 531 
L 1825 4091 
L 703 3866 
L 703 4441 
L 1819 4666 
L 2450 4666 
L 2450 531 
L 3481 531 
L 3481 0 
L 794 0 
L 794 531 
z
" id="DejaVuSans-31" transform="scale(0.015625)"/>
     </defs>
     <use xlink:href="#DejaVuSans-41"/>
     <use x="66.658203" xlink:href="#DejaVuSans-74"/>
     <use x="105.867188" xlink:href="#DejaVuSans-74"/>
     <use x="145.076172" xlink:href="#DejaVuSans-65"/>
     <use x="206.599609" xlink:href="#DejaVuSans-6e"/>
     <use x="269.978516" xlink:href="#DejaVuSans-64"/>
     <use x="333.455078" xlink:href="#DejaVuSans-72"/>
     <use x="372.318359" xlink:href="#DejaVuSans-65"/>
     <use x="433.841797" xlink:href="#DejaVuSans-20"/>
     <use x="465.628906" xlink:href="#DejaVuSans-31"/>
     <use x="529.251953" xlink:href="#DejaVuSans-73"/>
    </g>
   </g>
   <g id="text_7">
    <!-- Sans fin -->
    <g transform="translate(43.92 426.939327)scale(0.13 -0.13)">
     <defs>
      <path d="M 3425 4513 
L 3425 3897 
Q 3066 4069 2747 4153 
Q 2428 4238 2131 4238 
Q 1616 4238 1336 4038 
Q 1056 3838 1056 3469 
Q 1056 3159 1242 3001 
Q 1428 2844 1947 2747 
L 2328 2669 
Q 3034 2534 3370 2195 
Q 3706 1856 3706 1288 
Q 3706 609 3251 259 
Q 2797 -91 1919 -91 
Q 1588 -91 1214 -16 
Q 841 59 441 206 
L 441 856 
Q 825 641 1194 531 
Q 1563 422 1919 422 
Q 2459 422 2753 634 
Q 3047 847 3047 1241 
Q 3047 1584 2836 1778 
Q 2625 1972 2144 2069 
L 1759 2144 
Q 1053 2284 737 2584 
Q 422 2884 422 3419 
Q 422 4038 858 4394 
Q 1294 4750 2059 4750 
Q 2388 4750 2728 4690 
Q 3069 4631 3425 4513 
z
" id="DejaVuSans-53" transform="scale(0.015625)"/>
      <path d="M 2375 4863 
L 2375 4384 
L 1825 4384 
Q 1516 4384 1395 4259 
Q 1275 4134 1275 3809 
L 1275 3500 
L 2222 3500 
L 2222 3053 
L 1275 3053 
L 1275 0 
L 697 0 
L 697 3053 
L 147 3053 
L 147 3500 
L 697 3500 
L 697 3744 
Q 697 4328 969 4595 
Q 1241 4863 1831 4863 
L 2375 4863 
z
" id="DejaVuSans-66" transform="scale(0.015625)"/>
     </defs>
     <use xlink:href="#DejaVuSans-53"/>
     <use x="63.476562" xlink:href="#DejaVuSans-61"/>
     <use x="124.755859" xlink:href="#DejaVuSans-6e"/>
     <use x="188.134766" xlink:href="#DejaVuSans-73"/>
     <use x="240.234375" xlink:href="#DejaVuSans-20"/>
     <use x="272.021484" xlink:href="#DejaVuSans-66"/>
     <use x="307.226562" xlink:href="#DejaVuSans-69"/>
     <use x="335.009766" xlink:href="#DejaVuSans-6e"/>
    </g>
   </g>
   <g id="text_8">
    <!-- FIN -->
    <g transform="translate(60.972607 497.319327)scale(0.13 -0.13)">
     <defs>
      <path d="M 628 4666 
L 3309 4666 
L 3309 4134 
L 1259 4134 
L 1259 2759 
L 3109 2759 
L 3109 2228 
L 1259 2228 
L 1259 0 
L 628 0 
L 628 4666 
z
" id="DejaVuSans-46" transform="scale(0.015625)"/>
      <path d="M 628 4666 
L 1259 4666 
L 1259 0 
L 628 0 
L 628 4666 
z
" id="DejaVuSans-49" transform="scale(0.015625)"/>
      <path d="M 628 4666 
L 1478 4666 
L 3547 763 
L 3547 4666 
L 4159 4666 
L 4159 0 
L 3309 0 
L 1241 3903 
L 1241 0 
L 628 0 
L 628 4666 
z
" id="DejaVuSans-4e" transform="scale(0.015625)"/>
     </defs>
     <use xlink:href="#DejaVuSans-46"/>
     <use x="57.519531" xlink:href="#DejaVuSans-49"/>
     <use x="87.011719" xlink:href="#DejaVuSans-4e"/>
    </g>
   </g>
  </g>
 </g>
 <defs>
  <clipPath id="pa67c2c4fbb">
   <rect height="504.884278" width="128.52" x="7.2" y="7.2"/>
  </clipPath>
 </defs>
</svg>
