<?xml version="1.0" encoding="UTF-8"?>
<svg xmlns="http://www.w3.org/2000/svg" xmlns:xlink="http://www.w3.org/1999/xlink" width="200px" height="282px" viewBox="0 0 200 282" version="1.1">
<g id="surface1">
<path style="fill:none;stroke-width:60;stroke-linecap:round;stroke-linejoin:round;stroke:rgb(51.764709%,0%,0%);stroke-opacity:1;stroke-miterlimit:4;" d="M 3939.97534 3939.968084 L 112989.957846 3939.968084 L 112989.957846 78740.08646 L 3939.97534 78740.08646 Z M 3939.97534 3939.968084 " transform="matrix(0.0200432,0,0,0.0200274,-997.539897,-249.723665)"/>
<path style="fill:none;stroke-width:60;stroke-linecap:round;stroke-linejoin:round;stroke:rgb(51.764709%,0%,0%);stroke-opacity:1;stroke-miterlimit:4;" d="M 4719.932537 4719.954768 L 112210.000649 4719.954768 L 112210.000649 77959.90473 L 4719.932537 77959.90473 Z M 4719.932537 4719.954768 " transform="matrix(0.0200432,0,0,0.0200274,-997.539897,-249.723665)"/>
<path style="fill:none;stroke-width:60;stroke-linecap:round;stroke-linejoin:round;stroke:rgb(51.764709%,0%,0%);stroke-opacity:1;stroke-miterlimit:4;" d="M 51249.972737 13749.973153 C 51249.972737 13888.065319 51138.104813 14000.021397 50999.926489 14000.021397 C 50861.943057 14000.021397 50750.075133 13888.065319 50750.075133 13749.973153 C 50750.075133 13611.880987 50861.943057 13499.924908 50999.926489 13499.924908 C 51138.104813 13499.924908 51249.972737 13611.880987 51249.972737 13749.973153 Z M 51249.972737 13749.973153 " transform="matrix(0.0200432,0,0,0.0200274,-997.539897,-249.723665)"/>
<path style="fill:none;stroke-width:60;stroke-linecap:round;stroke-linejoin:round;stroke:rgb(51.764709%,0%,0%);stroke-opacity:1;stroke-miterlimit:4;" d="M 50999.926489 14499.92284 L 50999.926489 14000.021397 " transform="matrix(0.0200432,0,0,0.0200274,-997.539897,-249.723665)"/>
<path style="fill:none;stroke-width:60;stroke-linecap:round;stroke-linejoin:round;stroke:rgb(0%,51.764709%,51.764709%);stroke-opacity:1;stroke-miterlimit:4;" d="M 50500.028885 12510.069339 L 50669.974581 13009.970782 L 50829.980793 12510.069339 " transform="matrix(0.0200432,0,0,0.0200274,-997.539897,-249.723665)"/>
<path style="fill:none;stroke-width:60;stroke-linecap:round;stroke-linejoin:round;stroke:rgb(0%,51.764709%,51.764709%);stroke-opacity:1;stroke-miterlimit:4;" d="M 51279.986082 12960.039152 L 51259.912221 12990.076148 L 51189.946046 13009.970782 L 51140.053731 13009.970782 L 51070.087556 12990.076148 L 51020.00035 12939.949472 L 50999.926489 12890.017841 L 50969.913143 12799.906852 L 50969.913143 12730.080587 L 50999.926489 12630.02228 L 51020.00035 12580.090649 L 51070.087556 12539.91129 L 51140.053731 12510.069339 L 51189.946046 12510.069339 L 51259.912221 12539.91129 L 51279.986082 12560.00097 " transform="matrix(0.0200432,0,0,0.0200274,-997.539897,-249.723665)"/>
<path style="fill:none;stroke-width:60;stroke-linecap:round;stroke-linejoin:round;stroke:rgb(0%,51.764709%,51.764709%);stroke-opacity:1;stroke-miterlimit:4;" d="M 51780.078578 12960.039152 L 51760.004717 12990.076148 L 51690.038541 13009.970782 L 51639.951335 13009.970782 L 51569.98516 12990.076148 L 51520.092845 12939.949472 L 51500.018984 12890.017841 L 51470.005639 12799.906852 L 51470.005639 12730.080587 L 51500.018984 12630.02228 L 51520.092845 12580.090649 L 51569.98516 12539.91129 L 51639.951335 12510.069339 L 51690.038541 12510.069339 L 51760.004717 12539.91129 L 51780.078578 12560.00097 " transform="matrix(0.0200432,0,0,0.0200274,-997.539897,-249.723665)"/>
<path style="fill:none;stroke-width:60;stroke-linecap:round;stroke-linejoin:round;stroke:rgb(51.764709%,0%,0%);stroke-opacity:1;stroke-miterlimit:4;" d="M 50999.926489 24500.097206 L 50999.926489 24999.998649 L 51500.018984 24999.998649 L 50999.926489 25500.095138 L 50500.028885 24999.998649 L 50999.926489 24999.998649 " transform="matrix(0.0200432,0,0,0.0200274,-997.539897,-249.723665)"/>
<path style="fill:none;stroke-width:60;stroke-linecap:round;stroke-linejoin:round;stroke:rgb(0%,51.764709%,51.764709%);stroke-opacity:1;stroke-miterlimit:4;" d="M 50660.035097 25999.996581 L 50620.082267 25969.959584 L 50549.921199 25969.959584 L 50470.01554 25999.996581 L 50430.06271 26039.980895 L 50400.049364 26089.912525 L 50379.975503 26189.970832 L 50379.975503 26259.992142 L 50400.049364 26349.908087 L 50430.06271 26400.034763 L 50470.01554 26449.966394 L 50549.921199 26470.056073 L 50590.068921 26470.056073 L 50660.035097 26449.966394 L 50690.048442 26419.929397 L 50690.048442 26259.992142 L 50590.068921 26259.992142 " transform="matrix(0.0200432,0,0,0.0200274,-997.539897,-249.723665)"/>
<path style="fill:none;stroke-width:60;stroke-linecap:round;stroke-linejoin:round;stroke:rgb(0%,51.764709%,51.764709%);stroke-opacity:1;stroke-miterlimit:4;" d="M 50899.946968 26470.056073 L 50899.946968 25969.959584 L 51189.946046 26470.056073 L 51189.946046 25969.959584 " transform="matrix(0.0200432,0,0,0.0200274,-997.539897,-249.723665)"/>
<path style="fill:none;stroke-width:60;stroke-linecap:round;stroke-linejoin:round;stroke:rgb(0%,51.764709%,51.764709%);stroke-opacity:1;stroke-miterlimit:4;" d="M 51430.052809 26470.056073 L 51430.052809 25969.959584 L 51549.911299 25969.959584 L 51620.072366 25999.996581 L 51660.025196 26039.980895 L 51690.038541 26089.912525 L 51709.917511 26189.970832 L 51709.917511 26259.992142 L 51690.038541 26349.908087 L 51660.025196 26400.034763 L 51620.072366 26449.966394 L 51549.911299 26470.056073 L 51430.052809 26470.056073 " transform="matrix(0.0200432,0,0,0.0200274,-997.539897,-249.723665)"/>
<path style="fill:none;stroke-width:60;stroke-linecap:round;stroke-linejoin:round;stroke:rgb(51.764709%,0%,0%);stroke-opacity:1;stroke-miterlimit:4;" d="M 51200.080422 18299.993 C 51200.080422 18410.388715 51110.43017 18499.914568 50999.926489 18499.914568 C 50889.6177 18499.914568 50799.967447 18410.388715 50799.967447 18299.993 C 50799.967447 18189.597285 50889.6177 18100.071432 50999.926489 18100.071432 C 51110.43017 18100.071432 51200.080422 18189.597285 51200.080422 18299.993 Z M 51200.080422 18299.993 " transform="matrix(0.0200432,0,0,0.0200274,-997.539897,-249.723665)"/>
<path style="fill:none;stroke-width:60;stroke-linecap:round;stroke-linejoin:round;stroke:rgb(51.764709%,0%,0%);stroke-opacity:1;stroke-miterlimit:4;" d="M 51200.080422 16700.035318 C 51200.080422 16810.431033 51110.43017 16899.956886 50999.926489 16899.956886 C 50889.6177 16899.956886 50799.967447 16810.431033 50799.967447 16700.035318 C 50799.967447 16589.639603 50889.6177 16499.918704 50999.926489 16499.918704 C 51110.43017 16499.918704 51200.080422 16589.639603 51200.080422 16700.035318 Z M 51200.080422 16700.035318 " transform="matrix(0.0200432,0,0,0.0200274,-997.539897,-249.723665)"/>
<path style="fill:none;stroke-width:60;stroke-linecap:round;stroke-linejoin:round;stroke:rgb(51.764709%,0%,0%);stroke-opacity:1;stroke-miterlimit:4;" d="M 50500.028885 17499.916636 L 49799.977348 17499.916636 " transform="matrix(0.0200432,0,0,0.0200274,-997.539897,-249.723665)"/>
<path style="fill:none;stroke-width:60;stroke-linecap:round;stroke-linejoin:round;stroke:rgb(51.764709%,0%,0%);stroke-opacity:1;stroke-miterlimit:4;" d="M 50500.028885 16499.918704 L 50500.028885 18499.914568 " transform="matrix(0.0200432,0,0,0.0200274,-997.539897,-249.723665)"/>
<path style="fill:none;stroke-width:60;stroke-linecap:round;stroke-linejoin:round;stroke:rgb(51.764709%,0%,0%);stroke-opacity:1;stroke-miterlimit:4;" d="M 50999.926489 18499.914568 L 50999.926489 19499.9125 " transform="matrix(0.0200432,0,0,0.0200274,-997.539897,-249.723665)"/>
<path style="fill:none;stroke-width:60;stroke-linecap:round;stroke-linejoin:round;stroke:rgb(51.764709%,0%,0%);stroke-opacity:1;stroke-miterlimit:4;" d="M 50999.926489 16499.918704 L 50999.926489 15499.920772 " transform="matrix(0.0200432,0,0,0.0200274,-997.539897,-249.723665)"/>
<path style="fill:none;stroke-width:60;stroke-linecap:round;stroke-linejoin:round;stroke:rgb(0%,51.764709%,51.764709%);stroke-opacity:1;stroke-miterlimit:4;" d="M 51790.018062 17430.090372 L 51859.984238 17449.985006 L 51889.997583 17480.022002 L 51910.071444 17520.006316 L 51910.071444 17599.974943 L 51889.997583 17639.959257 L 51859.984238 17669.996253 L 51810.091923 17690.085933 L 51620.072366 17690.085933 L 51620.072366 17189.989444 L 51790.018062 17189.989444 L 51839.910377 17220.026441 L 51859.984238 17239.921075 L 51889.997583 17290.047751 L 51889.997583 17330.032065 L 51859.984238 17379.963695 L 51839.910377 17410.000692 L 51790.018062 17430.090372 L 51620.072366 17430.090372 " transform="matrix(0.0200432,0,0,0.0200274,-997.539897,-249.723665)"/>
<path style="fill:none;stroke-width:60;stroke-linecap:round;stroke-linejoin:round;stroke:rgb(0%,51.764709%,51.764709%);stroke-opacity:1;stroke-miterlimit:4;" d="M 52119.96997 17690.085933 L 52119.96997 17189.989444 L 52309.989527 17189.989444 L 52360.076733 17220.026441 L 52390.090079 17239.921075 L 52409.969048 17290.047751 L 52409.969048 17360.069061 L 52390.090079 17410.000692 L 52360.076733 17430.090372 L 52309.989527 17449.985006 L 52119.96997 17449.985006 " transform="matrix(0.0200432,0,0,0.0200274,-997.539897,-249.723665)"/>
<path style="fill:none;stroke-width:100;stroke-linecap:round;stroke-linejoin:round;stroke:rgb(51.764709%,0%,0%);stroke-opacity:1;stroke-miterlimit:4;" d="M 50600.008406 21000.006921 L 51400.039464 21000.006921 L 51400.039464 23000.002785 L 50600.008406 23000.002785 Z M 50600.008406 21000.006921 " transform="matrix(0.0200432,0,0,0.0200274,-997.539897,-249.723665)"/>
<path style="fill:none;stroke-width:60;stroke-linecap:round;stroke-linejoin:round;stroke:rgb(51.764709%,0%,0%);stroke-opacity:1;stroke-miterlimit:4;" d="M 50999.926489 21000.006921 L 50999.926489 20499.910432 " transform="matrix(0.0200432,0,0,0.0200274,-997.539897,-249.723665)"/>
<path style="fill:none;stroke-width:60;stroke-linecap:round;stroke-linejoin:round;stroke:rgb(51.764709%,0%,0%);stroke-opacity:1;stroke-miterlimit:4;" d="M 50999.926489 23000.002785 L 50999.926489 23499.904228 " transform="matrix(0.0200432,0,0,0.0200274,-997.539897,-249.723665)"/>
<path style="fill:none;stroke-width:60;stroke-linecap:round;stroke-linejoin:round;stroke:rgb(0%,51.764709%,51.764709%);stroke-opacity:1;stroke-miterlimit:4;" d="M 51839.910377 21779.993605 L 51839.910377 21280.092162 L 52029.929934 21280.092162 L 52080.01714 21309.934113 L 52110.030485 21330.023793 L 52129.909454 21379.955423 L 52129.909454 21449.976734 L 52110.030485 21499.908364 L 52080.01714 21519.998044 L 52029.929934 21540.087723 L 51839.910377 21540.087723 " transform="matrix(0.0200432,0,0,0.0200274,-997.539897,-249.723665)"/>
<path style="fill:none;stroke-width:60;stroke-linecap:round;stroke-linejoin:round;stroke:rgb(0%,51.764709%,51.764709%);stroke-opacity:1;stroke-miterlimit:4;" d="M 52560.035775 21449.976734 L 52560.035775 21779.993605 " transform="matrix(0.0200432,0,0,0.0200274,-997.539897,-249.723665)"/>
<path style="fill:none;stroke-width:60;stroke-linecap:round;stroke-linejoin:round;stroke:rgb(0%,51.764709%,51.764709%);stroke-opacity:1;stroke-miterlimit:4;" d="M 52340.002872 21449.976734 L 52340.002872 21709.972295 L 52370.016218 21759.903926 L 52419.908532 21779.993605 L 52490.069599 21779.993605 L 52530.022429 21759.903926 L 52560.035775 21730.061975 " transform="matrix(0.0200432,0,0,0.0200274,-997.539897,-249.723665)"/>
<path style="fill:none;stroke-width:60;stroke-linecap:round;stroke-linejoin:round;stroke:rgb(0%,51.764709%,51.764709%);stroke-opacity:1;stroke-miterlimit:4;" d="M 52869.913822 21779.993605 L 52820.021507 21759.903926 L 52799.947646 21709.972295 L 52799.947646 21280.092162 " transform="matrix(0.0200432,0,0,0.0200274,-997.539897,-249.723665)"/>
<path style="fill:none;stroke-width:60;stroke-linecap:round;stroke-linejoin:round;stroke:rgb(0%,51.764709%,51.764709%);stroke-opacity:1;stroke-miterlimit:4;" d="M 53130.094446 21779.993605 L 53080.007239 21759.903926 L 53059.933379 21709.972295 L 53059.933379 21280.092162 " transform="matrix(0.0200432,0,0,0.0200274,-997.539897,-249.723665)"/>
<path style="fill:none;stroke-width:60;stroke-linecap:round;stroke-linejoin:round;stroke:rgb(0%,51.764709%,51.764709%);stroke-opacity:1;stroke-miterlimit:4;" d="M 53319.919111 21590.019354 L 53699.958225 21590.019354 " transform="matrix(0.0200432,0,0,0.0200274,-997.539897,-249.723665)"/>
<path style="fill:none;stroke-width:60;stroke-linecap:round;stroke-linejoin:round;stroke:rgb(0%,51.764709%,51.764709%);stroke-opacity:1;stroke-miterlimit:4;" d="M 54149.963514 21779.993605 L 54149.963514 21280.092162 " transform="matrix(0.0200432,0,0,0.0200274,-997.539897,-249.723665)"/>
<path style="fill:none;stroke-width:60;stroke-linecap:round;stroke-linejoin:round;stroke:rgb(0%,51.764709%,51.764709%);stroke-opacity:1;stroke-miterlimit:4;" d="M 54149.963514 21759.903926 L 54110.010684 21779.993605 L 54010.031164 21779.993605 L 53959.943957 21759.903926 L 53940.064988 21730.061975 L 53919.991127 21690.077661 L 53919.991127 21540.087723 L 53940.064988 21499.908364 L 53959.943957 21470.066413 L 54010.031164 21449.976734 L 54110.010684 21449.976734 L 54149.963514 21470.066413 " transform="matrix(0.0200432,0,0,0.0200274,-997.539897,-249.723665)"/>
<path style="fill:none;stroke-width:60;stroke-linecap:round;stroke-linejoin:round;stroke:rgb(0%,51.764709%,51.764709%);stroke-opacity:1;stroke-miterlimit:4;" d="M 54460.036453 21779.993605 L 54420.083623 21759.903926 L 54390.070278 21730.061975 L 54369.996417 21690.077661 L 54369.996417 21540.087723 L 54390.070278 21499.908364 L 54420.083623 21470.066413 L 54460.036453 21449.976734 L 54530.002628 21449.976734 L 54580.089835 21470.066413 L 54609.908288 21499.908364 L 54629.982149 21540.087723 L 54629.982149 21690.077661 L 54609.908288 21730.061975 L 54580.089835 21759.903926 L 54530.002628 21779.993605 L 54460.036453 21779.993605 " transform="matrix(0.0200432,0,0,0.0200274,-997.539897,-249.723665)"/>
<path style="fill:none;stroke-width:60;stroke-linecap:round;stroke-linejoin:round;stroke:rgb(0%,51.764709%,51.764709%);stroke-opacity:1;stroke-miterlimit:4;" d="M 54799.927845 21449.976734 L 54889.967881 21779.993605 L 54989.947402 21540.087723 L 55079.987438 21779.993605 L 55179.966959 21449.976734 " transform="matrix(0.0200432,0,0,0.0200274,-997.539897,-249.723665)"/>
<path style="fill:none;stroke-width:60;stroke-linecap:round;stroke-linejoin:round;stroke:rgb(0%,51.764709%,51.764709%);stroke-opacity:1;stroke-miterlimit:4;" d="M 55369.986516 21449.976734 L 55369.986516 21779.993605 " transform="matrix(0.0200432,0,0,0.0200274,-997.539897,-249.723665)"/>
<path style="fill:none;stroke-width:60;stroke-linecap:round;stroke-linejoin:round;stroke:rgb(0%,51.764709%,51.764709%);stroke-opacity:1;stroke-miterlimit:4;" d="M 55369.986516 21499.908364 L 55390.060377 21470.066413 L 55439.952691 21449.976734 L 55509.918867 21449.976734 L 55560.006073 21470.066413 L 55580.079934 21519.998044 L 55580.079934 21779.993605 " transform="matrix(0.0200432,0,0,0.0200274,-997.539897,-249.723665)"/>
<path style="fill:none;stroke-width:60;stroke-linecap:round;stroke-linejoin:round;stroke:rgb(0%,51.764709%,51.764709%);stroke-opacity:1;stroke-miterlimit:4;" d="M 56109.990883 21779.993605 L 55940.045187 21540.087723 " transform="matrix(0.0200432,0,0,0.0200274,-997.539897,-249.723665)"/>
<path style="fill:none;stroke-width:60;stroke-linecap:round;stroke-linejoin:round;stroke:rgb(0%,51.764709%,51.764709%);stroke-opacity:1;stroke-miterlimit:4;" d="M 55819.991805 21779.993605 L 55819.991805 21280.092162 L 56010.011362 21280.092162 L 56059.903677 21309.934113 L 56079.977538 21330.023793 L 56109.990883 21379.955423 L 56109.990883 21449.976734 L 56079.977538 21499.908364 L 56059.903677 21519.998044 L 56010.011362 21540.087723 L 55819.991805 21540.087723 " transform="matrix(0.0200432,0,0,0.0200274,-997.539897,-249.723665)"/>
<path style="fill:none;stroke-width:60;stroke-linecap:round;stroke-linejoin:round;stroke:rgb(0%,51.764709%,51.764709%);stroke-opacity:1;stroke-miterlimit:4;" d="M 56509.908966 21759.903926 L 56460.016652 21779.993605 L 56369.976616 21779.993605 L 56320.084301 21759.903926 L 56300.01044 21709.972295 L 56300.01044 21519.998044 L 56320.084301 21470.066413 L 56369.976616 21449.976734 L 56460.016652 21449.976734 L 56509.908966 21470.066413 L 56529.982827 21519.998044 L 56529.982827 21569.929675 L 56300.01044 21609.913988 " transform="matrix(0.0200432,0,0,0.0200274,-997.539897,-249.723665)"/>
<path style="fill:none;stroke-width:60;stroke-linecap:round;stroke-linejoin:round;stroke:rgb(0%,51.764709%,51.764709%);stroke-opacity:1;stroke-miterlimit:4;" d="M 56729.941869 21759.903926 L 56770.08959 21779.993605 L 56870.069111 21779.993605 L 56919.961426 21759.903926 L 56940.035287 21709.972295 L 56940.035287 21690.077661 L 56919.961426 21639.950985 L 56870.069111 21609.913988 L 56799.908044 21609.913988 L 56750.01573 21590.019354 L 56729.941869 21540.087723 L 56729.941869 21519.998044 L 56750.01573 21470.066413 L 56799.908044 21449.976734 L 56870.069111 21449.976734 L 56919.961426 21470.066413 " transform="matrix(0.0200432,0,0,0.0200274,-997.539897,-249.723665)"/>
<path style="fill:none;stroke-width:60;stroke-linecap:round;stroke-linejoin:round;stroke:rgb(0%,51.764709%,51.764709%);stroke-opacity:1;stroke-miterlimit:4;" d="M 57149.933813 21779.993605 L 57149.933813 21449.976734 " transform="matrix(0.0200432,0,0,0.0200274,-997.539897,-249.723665)"/>
<path style="fill:none;stroke-width:60;stroke-linecap:round;stroke-linejoin:round;stroke:rgb(0%,51.764709%,51.764709%);stroke-opacity:1;stroke-miterlimit:4;" d="M 57149.933813 21280.092162 L 57130.054844 21309.934113 L 57149.933813 21330.023793 L 57179.947158 21309.934113 L 57149.933813 21280.092162 L 57149.933813 21330.023793 " transform="matrix(0.0200432,0,0,0.0200274,-997.539897,-249.723665)"/>
<path style="fill:none;stroke-width:60;stroke-linecap:round;stroke-linejoin:round;stroke:rgb(0%,51.764709%,51.764709%);stroke-opacity:1;stroke-miterlimit:4;" d="M 57369.966715 21759.903926 L 57420.053921 21779.993605 L 57510.093958 21779.993605 L 57559.986272 21759.903926 L 57580.060133 21709.972295 L 57580.060133 21690.077661 L 57559.986272 21639.950985 L 57510.093958 21609.913988 L 57439.93289 21609.913988 L 57390.040576 21590.019354 L 57369.966715 21540.087723 L 57369.966715 21519.998044 L 57390.040576 21470.066413 L 57439.93289 21449.976734 L 57510.093958 21449.976734 L 57559.986272 21470.066413 " transform="matrix(0.0200432,0,0,0.0200274,-997.539897,-249.723665)"/>
<path style="fill:none;stroke-width:60;stroke-linecap:round;stroke-linejoin:round;stroke:rgb(0%,51.764709%,51.764709%);stroke-opacity:1;stroke-miterlimit:4;" d="M 57729.931968 21449.976734 L 57919.951525 21449.976734 " transform="matrix(0.0200432,0,0,0.0200274,-997.539897,-249.723665)"/>
<path style="fill:none;stroke-width:60;stroke-linecap:round;stroke-linejoin:round;stroke:rgb(0%,51.764709%,51.764709%);stroke-opacity:1;stroke-miterlimit:4;" d="M 57800.093035 21280.092162 L 57800.093035 21709.972295 L 57819.972004 21759.903926 L 57870.059211 21779.993605 L 57919.951525 21779.993605 " transform="matrix(0.0200432,0,0,0.0200274,-997.539897,-249.723665)"/>
<path style="fill:none;stroke-width:60;stroke-linecap:round;stroke-linejoin:round;stroke:rgb(0%,51.764709%,51.764709%);stroke-opacity:1;stroke-miterlimit:4;" d="M 58299.990639 21779.993605 L 58299.990639 21519.998044 L 58269.977294 21470.066413 L 58230.024464 21449.976734 L 58130.044943 21449.976734 L 58079.957737 21470.066413 " transform="matrix(0.0200432,0,0,0.0200274,-997.539897,-249.723665)"/>
<path style="fill:none;stroke-width:60;stroke-linecap:round;stroke-linejoin:round;stroke:rgb(0%,51.764709%,51.764709%);stroke-opacity:1;stroke-miterlimit:4;" d="M 58299.990639 21759.903926 L 58249.903433 21779.993605 L 58130.044943 21779.993605 L 58079.957737 21759.903926 L 58060.078768 21709.972295 L 58060.078768 21660.040664 L 58079.957737 21609.913988 L 58130.044943 21590.019354 L 58249.903433 21590.019354 L 58299.990639 21569.929675 " transform="matrix(0.0200432,0,0,0.0200274,-997.539897,-249.723665)"/>
<path style="fill:none;stroke-width:60;stroke-linecap:round;stroke-linejoin:round;stroke:rgb(0%,51.764709%,51.764709%);stroke-opacity:1;stroke-miterlimit:4;" d="M 58529.963026 21449.976734 L 58529.963026 21779.993605 " transform="matrix(0.0200432,0,0,0.0200274,-997.539897,-249.723665)"/>
<path style="fill:none;stroke-width:60;stroke-linecap:round;stroke-linejoin:round;stroke:rgb(0%,51.764709%,51.764709%);stroke-opacity:1;stroke-miterlimit:4;" d="M 58529.963026 21499.908364 L 58559.976371 21470.066413 L 58610.063578 21449.976734 L 58680.029753 21449.976734 L 58729.922068 21470.066413 L 58749.995928 21519.998044 L 58749.995928 21779.993605 " transform="matrix(0.0200432,0,0,0.0200274,-997.539897,-249.723665)"/>
<path style="fill:none;stroke-width:60;stroke-linecap:round;stroke-linejoin:round;stroke:rgb(0%,51.764709%,51.764709%);stroke-opacity:1;stroke-miterlimit:4;" d="M 59200.001218 21759.903926 L 59149.914011 21779.993605 L 59060.068867 21779.993605 L 59009.981661 21759.903926 L 58989.9078 21730.061975 L 58960.089346 21690.077661 L 58960.089346 21540.087723 L 58989.9078 21499.908364 L 59009.981661 21470.066413 L 59060.068867 21449.976734 L 59149.914011 21449.976734 L 59200.001218 21470.066413 " transform="matrix(0.0200432,0,0,0.0200274,-997.539897,-249.723665)"/>
<path style="fill:none;stroke-width:60;stroke-linecap:round;stroke-linejoin:round;stroke:rgb(0%,51.764709%,51.764709%);stroke-opacity:1;stroke-miterlimit:4;" d="M 59610.053677 21759.903926 L 59559.966471 21779.993605 L 59459.98695 21779.993605 L 59420.03412 21759.903926 L 59390.020775 21709.972295 L 59390.020775 21519.998044 L 59420.03412 21470.066413 L 59459.98695 21449.976734 L 59559.966471 21449.976734 L 59610.053677 21470.066413 L 59629.932646 21519.998044 L 59629.932646 21569.929675 L 59390.020775 21609.913988 " transform="matrix(0.0200432,0,0,0.0200274,-997.539897,-249.723665)"/>
<path style="fill:none;stroke-width:60;stroke-linecap:round;stroke-linejoin:round;stroke:rgb(0%,51.764709%,51.764709%);stroke-opacity:1;stroke-miterlimit:4;" d="M 52129.909454 22690.075593 L 51959.963758 22449.974666 " transform="matrix(0.0200432,0,0,0.0200274,-997.539897,-249.723665)"/>
<path style="fill:none;stroke-width:60;stroke-linecap:round;stroke-linejoin:round;stroke:rgb(0%,51.764709%,51.764709%);stroke-opacity:1;stroke-miterlimit:4;" d="M 51839.910377 22690.075593 L 51839.910377 22189.979104 L 52029.929934 22189.979104 L 52080.01714 22220.016101 L 52100.091001 22239.910735 L 52129.909454 22290.037411 L 52129.909454 22360.058721 L 52100.091001 22409.990352 L 52080.01714 22430.080032 L 52029.929934 22449.974666 L 51839.910377 22449.974666 " transform="matrix(0.0200432,0,0,0.0200274,-997.539897,-249.723665)"/>
<path style="fill:none;stroke-width:60;stroke-linecap:round;stroke-linejoin:round;stroke:rgb(0%,51.764709%,51.764709%);stroke-opacity:1;stroke-miterlimit:4;" d="M 52530.022429 22669.985913 L 52479.935223 22690.075593 L 52390.090079 22690.075593 L 52340.002872 22669.985913 L 52319.929011 22620.054283 L 52319.929011 22430.080032 L 52340.002872 22379.953355 L 52390.090079 22360.058721 L 52479.935223 22360.058721 L 52530.022429 22379.953355 L 52560.035775 22430.080032 L 52560.035775 22480.011662 L 52319.929011 22519.995976 " transform="matrix(0.0200432,0,0,0.0200274,-997.539897,-249.723665)"/>
<path style="fill:none;stroke-width:60;stroke-linecap:round;stroke-linejoin:round;stroke:rgb(0%,51.764709%,51.764709%);stroke-opacity:1;stroke-miterlimit:4;" d="M 52750.055332 22669.985913 L 52790.008162 22690.075593 L 52889.987682 22690.075593 L 52940.074889 22669.985913 L 52959.953858 22620.054283 L 52959.953858 22599.964603 L 52940.074889 22550.032972 L 52889.987682 22519.995976 L 52820.021507 22519.995976 L 52769.934301 22499.906296 L 52750.055332 22449.974666 L 52750.055332 22430.080032 L 52769.934301 22379.953355 L 52820.021507 22360.058721 L 52889.987682 22360.058721 L 52940.074889 22379.953355 " transform="matrix(0.0200432,0,0,0.0200274,-997.539897,-249.723665)"/>
<path style="fill:none;stroke-width:60;stroke-linecap:round;stroke-linejoin:round;stroke:rgb(0%,51.764709%,51.764709%);stroke-opacity:1;stroke-miterlimit:4;" d="M 53170.047276 22690.075593 L 53170.047276 22360.058721 " transform="matrix(0.0200432,0,0,0.0200274,-997.539897,-249.723665)"/>
<path style="fill:none;stroke-width:60;stroke-linecap:round;stroke-linejoin:round;stroke:rgb(0%,51.764709%,51.764709%);stroke-opacity:1;stroke-miterlimit:4;" d="M 53170.047276 22189.979104 L 53149.973415 22220.016101 L 53170.047276 22239.910735 L 53200.060621 22220.016101 L 53170.047276 22189.979104 L 53170.047276 22239.910735 " transform="matrix(0.0200432,0,0,0.0200274,-997.539897,-249.723665)"/>
<path style="fill:none;stroke-width:60;stroke-linecap:round;stroke-linejoin:round;stroke:rgb(0%,51.764709%,51.764709%);stroke-opacity:1;stroke-miterlimit:4;" d="M 53390.080178 22669.985913 L 53439.972493 22690.075593 L 53530.012529 22690.075593 L 53579.904843 22669.985913 L 53599.978704 22620.054283 L 53599.978704 22599.964603 L 53579.904843 22550.032972 L 53530.012529 22519.995976 L 53460.046353 22519.995976 L 53409.959147 22499.906296 L 53390.080178 22449.974666 L 53390.080178 22430.080032 L 53409.959147 22379.953355 L 53460.046353 22360.058721 L 53530.012529 22360.058721 L 53579.904843 22379.953355 " transform="matrix(0.0200432,0,0,0.0200274,-997.539897,-249.723665)"/>
<path style="fill:none;stroke-width:60;stroke-linecap:round;stroke-linejoin:round;stroke:rgb(0%,51.764709%,51.764709%);stroke-opacity:1;stroke-miterlimit:4;" d="M 53750.045431 22360.058721 L 53940.064988 22360.058721 " transform="matrix(0.0200432,0,0,0.0200274,-997.539897,-249.723665)"/>
<path style="fill:none;stroke-width:60;stroke-linecap:round;stroke-linejoin:round;stroke:rgb(0%,51.764709%,51.764709%);stroke-opacity:1;stroke-miterlimit:4;" d="M 53820.011607 22189.979104 L 53820.011607 22620.054283 L 53840.085467 22669.985913 L 53889.977782 22690.075593 L 53940.064988 22690.075593 " transform="matrix(0.0200432,0,0,0.0200274,-997.539897,-249.723665)"/>
<path style="fill:none;stroke-width:60;stroke-linecap:round;stroke-linejoin:round;stroke:rgb(0%,51.764709%,51.764709%);stroke-opacity:1;stroke-miterlimit:4;" d="M 54319.90921 22690.075593 L 54319.90921 22430.080032 L 54290.090757 22379.953355 L 54249.943035 22360.058721 L 54149.963514 22360.058721 L 54100.0712 22379.953355 " transform="matrix(0.0200432,0,0,0.0200274,-997.539897,-249.723665)"/>
<path style="fill:none;stroke-width:60;stroke-linecap:round;stroke-linejoin:round;stroke:rgb(0%,51.764709%,51.764709%);stroke-opacity:1;stroke-miterlimit:4;" d="M 54319.90921 22669.985913 L 54270.016896 22690.075593 L 54149.963514 22690.075593 L 54100.0712 22669.985913 L 54079.997339 22620.054283 L 54079.997339 22569.927607 L 54100.0712 22519.995976 L 54149.963514 22499.906296 L 54270.016896 22499.906296 L 54319.90921 22480.011662 " transform="matrix(0.0200432,0,0,0.0200274,-997.539897,-249.723665)"/>
<path style="fill:none;stroke-width:60;stroke-linecap:round;stroke-linejoin:round;stroke:rgb(0%,51.764709%,51.764709%);stroke-opacity:1;stroke-miterlimit:4;" d="M 54560.015974 22360.058721 L 54560.015974 22690.075593 " transform="matrix(0.0200432,0,0,0.0200274,-997.539897,-249.723665)"/>
<path style="fill:none;stroke-width:60;stroke-linecap:round;stroke-linejoin:round;stroke:rgb(0%,51.764709%,51.764709%);stroke-opacity:1;stroke-miterlimit:4;" d="M 54560.015974 22409.990352 L 54580.089835 22379.953355 L 54629.982149 22360.058721 L 54699.948324 22360.058721 L 54750.035531 22379.953355 L 54769.9145 22430.080032 L 54769.9145 22690.075593 " transform="matrix(0.0200432,0,0,0.0200274,-997.539897,-249.723665)"/>
<path style="fill:none;stroke-width:60;stroke-linecap:round;stroke-linejoin:round;stroke:rgb(0%,51.764709%,51.764709%);stroke-opacity:1;stroke-miterlimit:4;" d="M 55219.919789 22669.985913 L 55170.027475 22690.075593 L 55079.987438 22690.075593 L 55030.095124 22669.985913 L 55010.021263 22639.948917 L 54980.007918 22599.964603 L 54980.007918 22449.974666 L 55010.021263 22409.990352 L 55030.095124 22379.953355 L 55079.987438 22360.058721 L 55170.027475 22360.058721 L 55219.919789 22379.953355 " transform="matrix(0.0200432,0,0,0.0200274,-997.539897,-249.723665)"/>
<path style="fill:none;stroke-width:60;stroke-linecap:round;stroke-linejoin:round;stroke:rgb(0%,51.764709%,51.764709%);stroke-opacity:1;stroke-miterlimit:4;" d="M 55629.972248 22669.985913 L 55580.079934 22690.075593 L 55479.905521 22690.075593 L 55439.952691 22669.985913 L 55409.939346 22620.054283 L 55409.939346 22430.080032 L 55439.952691 22379.953355 L 55479.905521 22360.058721 L 55580.079934 22360.058721 L 55629.972248 22379.953355 L 55650.046109 22430.080032 L 55650.046109 22480.011662 L 55409.939346 22519.995976 " transform="matrix(0.0200432,0,0,0.0200274,-997.539897,-249.723665)"/>
<path style="fill:none;stroke-width:60;stroke-linecap:round;stroke-linejoin:round;stroke:rgb(0%,51.764709%,51.764709%);stroke-opacity:1;stroke-miterlimit:4;" d="M 56170.017574 22189.979104 L 56460.016652 22189.979104 " transform="matrix(0.0200432,0,0,0.0200274,-997.539897,-249.723665)"/>
<path style="fill:none;stroke-width:60;stroke-linecap:round;stroke-linejoin:round;stroke:rgb(0%,51.764709%,51.764709%);stroke-opacity:1;stroke-miterlimit:4;" d="M 56320.084301 22690.075593 L 56320.084301 22189.979104 " transform="matrix(0.0200432,0,0,0.0200274,-997.539897,-249.723665)"/>
<path style="fill:none;stroke-width:60;stroke-linecap:round;stroke-linejoin:round;stroke:rgb(0%,51.764709%,51.764709%);stroke-opacity:1;stroke-miterlimit:4;" d="M 56629.962348 22690.075593 L 56629.962348 22360.058721 " transform="matrix(0.0200432,0,0,0.0200274,-997.539897,-249.723665)"/>
<path style="fill:none;stroke-width:60;stroke-linecap:round;stroke-linejoin:round;stroke:rgb(0%,51.764709%,51.764709%);stroke-opacity:1;stroke-miterlimit:4;" d="M 56629.962348 22189.979104 L 56599.949002 22220.016101 L 56629.962348 22239.910735 L 56650.036209 22220.016101 L 56629.962348 22189.979104 L 56629.962348 22239.910735 " transform="matrix(0.0200432,0,0,0.0200274,-997.539897,-249.723665)"/>
<path style="fill:none;stroke-width:60;stroke-linecap:round;stroke-linejoin:round;stroke:rgb(0%,51.764709%,51.764709%);stroke-opacity:1;stroke-miterlimit:4;" d="M 56859.934735 22690.075593 L 56859.934735 22360.058721 " transform="matrix(0.0200432,0,0,0.0200274,-997.539897,-249.723665)"/>
<path style="fill:none;stroke-width:60;stroke-linecap:round;stroke-linejoin:round;stroke:rgb(0%,51.764709%,51.764709%);stroke-opacity:1;stroke-miterlimit:4;" d="M 56859.934735 22449.974666 L 56889.94808 22409.990352 L 56910.021941 22379.953355 L 56959.914256 22360.058721 L 57010.001462 22360.058721 " transform="matrix(0.0200432,0,0,0.0200274,-997.539897,-249.723665)"/>
<path style="fill:none;stroke-width:60;stroke-linecap:round;stroke-linejoin:round;stroke:rgb(0%,51.764709%,51.764709%);stroke-opacity:1;stroke-miterlimit:4;" d="M 57390.040576 22690.075593 L 57390.040576 22430.080032 L 57360.02723 22379.953355 L 57320.074401 22360.058721 L 57220.09488 22360.058721 L 57170.007673 22379.953355 " transform="matrix(0.0200432,0,0,0.0200274,-997.539897,-249.723665)"/>
<path style="fill:none;stroke-width:60;stroke-linecap:round;stroke-linejoin:round;stroke:rgb(0%,51.764709%,51.764709%);stroke-opacity:1;stroke-miterlimit:4;" d="M 57390.040576 22669.985913 L 57339.95337 22690.075593 L 57220.09488 22690.075593 L 57170.007673 22669.985913 L 57149.933813 22620.054283 L 57149.933813 22569.927607 L 57170.007673 22519.995976 L 57220.09488 22499.906296 L 57339.95337 22499.906296 L 57390.040576 22480.011662 " transform="matrix(0.0200432,0,0,0.0200274,-997.539897,-249.723665)"/>
<path style="fill:none;stroke-width:60;stroke-linecap:round;stroke-linejoin:round;stroke:rgb(0%,51.764709%,51.764709%);stroke-opacity:1;stroke-miterlimit:4;" d="M 57840.045865 22360.058721 L 57840.045865 22760.096903 L 57819.972004 22810.028534 L 57789.958659 22829.923168 L 57750.005829 22859.960165 L 57669.905277 22859.960165 L 57629.952447 22829.923168 " transform="matrix(0.0200432,0,0,0.0200274,-997.539897,-249.723665)"/>
<path style="fill:none;stroke-width:60;stroke-linecap:round;stroke-linejoin:round;stroke:rgb(0%,51.764709%,51.764709%);stroke-opacity:1;stroke-miterlimit:4;" d="M 57840.045865 22669.985913 L 57789.958659 22690.075593 L 57699.918623 22690.075593 L 57650.026308 22669.985913 L 57629.952447 22639.948917 L 57599.939102 22599.964603 L 57599.939102 22449.974666 L 57629.952447 22409.990352 L 57650.026308 22379.953355 L 57699.918623 22360.058721 L 57789.958659 22360.058721 L 57840.045865 22379.953355 " transform="matrix(0.0200432,0,0,0.0200274,-997.539897,-249.723665)"/>
<path style="fill:none;stroke-width:60;stroke-linecap:round;stroke-linejoin:round;stroke:rgb(0%,51.764709%,51.764709%);stroke-opacity:1;stroke-miterlimit:4;" d="M 58269.977294 22669.985913 L 58220.084979 22690.075593 L 58130.044943 22690.075593 L 58079.957737 22669.985913 L 58060.078768 22620.054283 L 58060.078768 22430.080032 L 58079.957737 22379.953355 L 58130.044943 22360.058721 L 58220.084979 22360.058721 L 58269.977294 22379.953355 L 58290.051155 22430.080032 L 58290.051155 22480.011662 L 58060.078768 22519.995976 " transform="matrix(0.0200432,0,0,0.0200274,-997.539897,-249.723665)"/>
<path style="fill:none;stroke-width:60;stroke-linecap:round;stroke-linejoin:round;stroke:rgb(0%,51.764709%,0%);stroke-opacity:1;stroke-miterlimit:4;" d="M 50999.926489 20000.008989 L 50999.926489 20499.910432 " transform="matrix(0.0200432,0,0,0.0200274,-997.539897,-249.723665)"/>
<path style="fill:none;stroke-width:60;stroke-linecap:round;stroke-linejoin:round;stroke:rgb(0%,51.764709%,0%);stroke-opacity:1;stroke-miterlimit:4;" d="M 50999.926489 20000.008989 L 52500.009084 20000.008989 " transform="matrix(0.0200432,0,0,0.0200274,-997.539897,-249.723665)"/>
<path style="fill:none;stroke-width:60;stroke-linecap:round;stroke-linejoin:round;stroke:rgb(0%,51.764709%,0%);stroke-opacity:1;stroke-miterlimit:4;" d="M 50999.926489 19499.9125 L 50999.926489 20000.008989 " transform="matrix(0.0200432,0,0,0.0200274,-997.539897,-249.723665)"/>
<path style="fill:none;stroke-width:60;stroke-linecap:round;stroke-linejoin:round;stroke:rgb(0%,51.764709%,0%);stroke-opacity:1;stroke-miterlimit:4;" d="M 50999.926489 24500.097206 L 50999.926489 23499.904228 " transform="matrix(0.0200432,0,0,0.0200274,-997.539897,-249.723665)"/>
<path style="fill:none;stroke-width:60;stroke-linecap:round;stroke-linejoin:round;stroke:rgb(0%,51.764709%,0%);stroke-opacity:1;stroke-miterlimit:4;" d="M 50999.926489 15499.920772 L 50999.926489 14499.92284 " transform="matrix(0.0200432,0,0,0.0200274,-997.539897,-249.723665)"/>
<path style="fill:none;stroke-width:60;stroke-linecap:round;stroke-linejoin:round;stroke:rgb(51.764709%,51.764709%,0%);stroke-opacity:1;stroke-miterlimit:4;" d="M 53240.013451 19960.024675 L 53409.959147 19960.024675 " transform="matrix(0.0200432,0,0,0.0200274,-997.539897,-249.723665)"/>
<path style="fill:none;stroke-width:60;stroke-linecap:round;stroke-linejoin:round;stroke:rgb(51.764709%,51.764709%,0%);stroke-opacity:1;stroke-miterlimit:4;" d="M 53479.925322 20220.020237 L 53240.013451 20220.020237 L 53240.013451 19719.923748 L 53479.925322 19719.923748 " transform="matrix(0.0200432,0,0,0.0200274,-997.539897,-249.723665)"/>
<path style="fill:none;stroke-width:60;stroke-linecap:round;stroke-linejoin:round;stroke:rgb(51.764709%,51.764709%,0%);stroke-opacity:1;stroke-miterlimit:4;" d="M 53699.958225 19890.003365 L 53699.958225 20220.020237 " transform="matrix(0.0200432,0,0,0.0200274,-997.539897,-249.723665)"/>
<path style="fill:none;stroke-width:60;stroke-linecap:round;stroke-linejoin:round;stroke:rgb(51.764709%,51.764709%,0%);stroke-opacity:1;stroke-miterlimit:4;" d="M 53699.958225 19939.934996 L 53720.032086 19910.093045 L 53769.9244 19890.003365 L 53840.085467 19890.003365 L 53889.977782 19910.093045 L 53910.051643 19960.024675 L 53910.051643 20220.020237 " transform="matrix(0.0200432,0,0,0.0200274,-997.539897,-249.723665)"/>
<path style="fill:none;stroke-width:60;stroke-linecap:round;stroke-linejoin:round;stroke:rgb(51.764709%,51.764709%,0%);stroke-opacity:1;stroke-miterlimit:4;" d="M 54079.997339 19890.003365 L 54270.016896 19890.003365 " transform="matrix(0.0200432,0,0,0.0200274,-997.539897,-249.723665)"/>
<path style="fill:none;stroke-width:60;stroke-linecap:round;stroke-linejoin:round;stroke:rgb(51.764709%,51.764709%,0%);stroke-opacity:1;stroke-miterlimit:4;" d="M 54149.963514 19719.923748 L 54149.963514 20149.998927 L 54170.037375 20199.930557 L 54219.92969 20220.020237 L 54270.016896 20220.020237 " transform="matrix(0.0200432,0,0,0.0200274,-997.539897,-249.723665)"/>
<path style="fill:none;stroke-width:60;stroke-linecap:round;stroke-linejoin:round;stroke:rgb(51.764709%,51.764709%,0%);stroke-opacity:1;stroke-miterlimit:4;" d="M 54430.023107 20220.020237 L 54430.023107 19890.003365 " transform="matrix(0.0200432,0,0,0.0200274,-997.539897,-249.723665)"/>
<path style="fill:none;stroke-width:60;stroke-linecap:round;stroke-linejoin:round;stroke:rgb(51.764709%,51.764709%,0%);stroke-opacity:1;stroke-miterlimit:4;" d="M 54430.023107 19979.91931 L 54460.036453 19939.934996 L 54479.915422 19910.093045 L 54530.002628 19890.003365 L 54580.089835 19890.003365 " transform="matrix(0.0200432,0,0,0.0200274,-997.539897,-249.723665)"/>
<path style="fill:none;stroke-width:60;stroke-linecap:round;stroke-linejoin:round;stroke:rgb(51.764709%,51.764709%,0%);stroke-opacity:1;stroke-miterlimit:4;" d="M 54929.920711 20199.930557 L 54889.967881 20220.020237 L 54789.988361 20220.020237 L 54740.096046 20199.930557 L 54720.022185 20149.998927 L 54720.022185 19960.024675 L 54740.096046 19910.093045 L 54789.988361 19890.003365 L 54889.967881 19890.003365 L 54929.920711 19910.093045 L 54959.934057 19960.024675 L 54959.934057 20009.956306 L 54720.022185 20049.94062 " transform="matrix(0.0200432,0,0,0.0200274,-997.539897,-249.723665)"/>
<path style="fill:none;stroke-width:60;stroke-linecap:round;stroke-linejoin:round;stroke:rgb(51.764709%,51.764709%,0%);stroke-opacity:1;stroke-miterlimit:4;" d="M 55360.047032 20199.930557 L 55320.094202 20220.020237 L 55219.919789 20220.020237 L 55170.027475 20199.930557 L 55149.953614 20149.998927 L 55149.953614 19960.024675 L 55170.027475 19910.093045 L 55219.919789 19890.003365 L 55320.094202 19890.003365 L 55360.047032 19910.093045 L 55390.060377 19960.024675 L 55390.060377 20009.956306 L 55149.953614 20049.94062 " transform="matrix(0.0200432,0,0,0.0200274,-997.539897,-249.723665)"/>
<path style="fill:none;stroke-width:60;stroke-linecap:round;stroke-linejoin:round;stroke:rgb(51.764709%,51.764709%,0%);stroke-opacity:1;stroke-miterlimit:4;" d="M 55479.905521 20269.951868 L 55859.944635 20269.951868 " transform="matrix(0.0200432,0,0,0.0200274,-997.539897,-249.723665)"/>
<path style="fill:none;stroke-width:60;stroke-linecap:round;stroke-linejoin:round;stroke:rgb(51.764709%,51.764709%,0%);stroke-opacity:1;stroke-miterlimit:4;" d="M 55979.998017 20220.020237 L 55979.998017 19719.923748 L 56149.943713 20079.977616 L 56320.084301 19719.923748 L 56320.084301 20220.020237 " transform="matrix(0.0200432,0,0,0.0200274,-997.539897,-249.723665)"/>
<path style="fill:none;stroke-width:60;stroke-linecap:round;stroke-linejoin:round;stroke:rgb(51.764709%,51.764709%,0%);stroke-opacity:1;stroke-miterlimit:4;" d="M 56550.056688 20220.020237 L 56550.056688 19890.003365 " transform="matrix(0.0200432,0,0,0.0200274,-997.539897,-249.723665)"/>
<path style="fill:none;stroke-width:60;stroke-linecap:round;stroke-linejoin:round;stroke:rgb(51.764709%,51.764709%,0%);stroke-opacity:1;stroke-miterlimit:4;" d="M 56550.056688 19719.923748 L 56529.982827 19749.960745 L 56550.056688 19770.050424 L 56580.070033 19749.960745 L 56550.056688 19719.923748 L 56550.056688 19770.050424 " transform="matrix(0.0200432,0,0,0.0200274,-997.539897,-249.723665)"/>
<path style="fill:none;stroke-width:60;stroke-linecap:round;stroke-linejoin:round;stroke:rgb(51.764709%,51.764709%,0%);stroke-opacity:1;stroke-miterlimit:4;" d="M 57010.001462 20199.930557 L 56959.914256 20220.020237 L 56859.934735 20220.020237 L 56819.981905 20199.930557 L 56789.968559 20170.088606 L 56770.08959 20129.909247 L 56770.08959 19979.91931 L 56789.968559 19939.934996 L 56819.981905 19910.093045 L 56859.934735 19890.003365 L 56959.914256 19890.003365 L 57010.001462 19910.093045 " transform="matrix(0.0200432,0,0,0.0200274,-997.539897,-249.723665)"/>
<path style="fill:none;stroke-width:60;stroke-linecap:round;stroke-linejoin:round;stroke:rgb(51.764709%,51.764709%,0%);stroke-opacity:1;stroke-miterlimit:4;" d="M 57220.09488 20220.020237 L 57220.09488 19890.003365 " transform="matrix(0.0200432,0,0,0.0200274,-997.539897,-249.723665)"/>
<path style="fill:none;stroke-width:60;stroke-linecap:round;stroke-linejoin:round;stroke:rgb(51.764709%,51.764709%,0%);stroke-opacity:1;stroke-miterlimit:4;" d="M 57220.09488 19979.91931 L 57239.973849 19939.934996 L 57269.987194 19910.093045 L 57320.074401 19890.003365 L 57360.02723 19890.003365 " transform="matrix(0.0200432,0,0,0.0200274,-997.539897,-249.723665)"/>
<path style="fill:none;stroke-width:60;stroke-linecap:round;stroke-linejoin:round;stroke:rgb(51.764709%,51.764709%,0%);stroke-opacity:1;stroke-miterlimit:4;" d="M 57599.939102 20220.020237 L 57550.046787 20199.930557 L 57529.972927 20170.088606 L 57510.093958 20129.909247 L 57510.093958 19979.91931 L 57529.972927 19939.934996 L 57550.046787 19910.093045 L 57599.939102 19890.003365 L 57669.905277 19890.003365 L 57719.992484 19910.093045 L 57740.066344 19939.934996 L 57770.07969 19979.91931 L 57770.07969 20129.909247 L 57740.066344 20170.088606 L 57719.992484 20199.930557 L 57669.905277 20220.020237 L 57599.939102 20220.020237 " transform="matrix(0.0200432,0,0,0.0200274,-997.539897,-249.723665)"/>
<path style="fill:none;stroke-width:60;stroke-linecap:round;stroke-linejoin:round;stroke:rgb(51.764709%,51.764709%,0%);stroke-opacity:1;stroke-miterlimit:4;" d="M 57979.978216 20220.020237 L 57979.978216 19719.923748 " transform="matrix(0.0200432,0,0,0.0200274,-997.539897,-249.723665)"/>
<path style="fill:none;stroke-width:60;stroke-linecap:round;stroke-linejoin:round;stroke:rgb(51.764709%,51.764709%,0%);stroke-opacity:1;stroke-miterlimit:4;" d="M 57979.978216 19910.093045 L 58030.065422 19890.003365 L 58130.044943 19890.003365 L 58169.997773 19910.093045 L 58200.011118 19939.934996 L 58220.084979 19979.91931 L 58220.084979 20129.909247 L 58200.011118 20170.088606 L 58169.997773 20199.930557 L 58130.044943 20220.020237 L 58030.065422 20220.020237 L 57979.978216 20199.930557 " transform="matrix(0.0200432,0,0,0.0200274,-997.539897,-249.723665)"/>
<path style="fill:none;stroke-width:60;stroke-linecap:round;stroke-linejoin:round;stroke:rgb(51.764709%,51.764709%,0%);stroke-opacity:1;stroke-miterlimit:4;" d="M 58429.983505 20220.020237 L 58429.983505 19890.003365 " transform="matrix(0.0200432,0,0,0.0200274,-997.539897,-249.723665)"/>
<path style="fill:none;stroke-width:60;stroke-linecap:round;stroke-linejoin:round;stroke:rgb(51.764709%,51.764709%,0%);stroke-opacity:1;stroke-miterlimit:4;" d="M 58429.983505 19719.923748 L 58409.909644 19749.960745 L 58429.983505 19770.050424 L 58459.996851 19749.960745 L 58429.983505 19719.923748 L 58429.983505 19770.050424 " transform="matrix(0.0200432,0,0,0.0200274,-997.539897,-249.723665)"/>
<path style="fill:none;stroke-width:60;stroke-linecap:round;stroke-linejoin:round;stroke:rgb(51.764709%,51.764709%,0%);stroke-opacity:1;stroke-miterlimit:4;" d="M 58599.929201 19890.003365 L 58789.948758 19890.003365 " transform="matrix(0.0200432,0,0,0.0200274,-997.539897,-249.723665)"/>
<path style="fill:none;stroke-width:60;stroke-linecap:round;stroke-linejoin:round;stroke:rgb(51.764709%,51.764709%,0%);stroke-opacity:1;stroke-miterlimit:4;" d="M 58670.090269 19719.923748 L 58670.090269 20149.998927 L 58699.908722 20199.930557 L 58740.056444 20220.020237 L 58789.948758 20220.020237 " transform="matrix(0.0200432,0,0,0.0200274,-997.539897,-249.723665)"/>
<path style="fill:none;stroke-width:100;stroke-linecap:round;stroke-linejoin:round;stroke:rgb(51.764709%,51.764709%,0%);stroke-opacity:1;stroke-miterlimit:4;" d="M 52500.009084 20000.008989 L 52750.055332 20250.057233 L 52999.906688 20250.057233 L 52999.906688 19749.960745 L 52750.055332 19749.960745 Z M 52500.009084 20000.008989 " transform="matrix(0.0200432,0,0,0.0200274,-997.539897,-249.723665)"/>
<path style="fill-rule:nonzero;fill:rgb(0%,51.764709%,0%);fill-opacity:1;stroke-width:100;stroke-linecap:round;stroke-linejoin:round;stroke:rgb(0%,51.764709%,0%);stroke-opacity:1;stroke-miterlimit:4;" d="M 51200.080422 20000.008989 C 51200.080422 20110.404704 51110.43017 20199.930557 50999.926489 20199.930557 C 50889.6177 20199.930557 50799.967447 20110.404704 50799.967447 20000.008989 C 50799.967447 19889.613274 50889.6177 19800.087421 50999.926489 19800.087421 C 51110.43017 19800.087421 51200.080422 19889.613274 51200.080422 20000.008989 Z M 51200.080422 20000.008989 " transform="matrix(0.0200432,0,0,0.0200274,-997.539897,-249.723665)"/>
</g>
</svg>
